<svg xmlns="http://www.w3.org/2000/svg" viewBox="0 0 123.35 46.81"><path d="M0 .8C1.6.48 4.79.2 7.86.2c3.71 0 5.99.36 7.94 1.52 1.88 1 3.19 2.83 3.19 5.31 0 2.35-1.4 4.55-4.39 5.71v.08c3.07.8 5.35 3.15 5.35 6.63 0 2.47-1.12 4.39-2.79 5.71-1.96 1.56-5.23 2.43-10.58 2.43-2.99 0-5.23-.2-6.59-.4V.8zm6.03 10.26h2c3.23 0 4.91-1.32 4.91-3.31 0-2.04-1.56-3.11-4.31-3.11-1.36 0-2.12.08-2.59.2v6.22zm0 11.93c.6.12 1.32.12 2.35.12 2.75 0 5.19-1.08 5.19-3.91 0-2.71-2.43-3.79-5.47-3.79H6.03v7.58zM24.1.8c1.6-.32 4.79-.6 7.86-.6 3.71 0 5.99.36 7.94 1.52 1.88 1 3.19 2.83 3.19 5.31 0 2.35-1.4 4.55-4.39 5.71v.08c3.07.8 5.35 3.15 5.35 6.63 0 2.47-1.12 4.39-2.79 5.71-1.96 1.56-5.23 2.43-10.58 2.43-2.99 0-5.23-.2-6.59-.4V.8zm6.03 10.26h2c3.23 0 4.91-1.32 4.91-3.31 0-2.04-1.56-3.11-4.31-3.11-1.36 0-2.12.08-2.59.2v6.22zm0 11.93c.6.12 1.32.12 2.35.12 2.75 0 5.19-1.08 5.19-3.91 0-2.71-2.43-3.79-5.47-3.79h-2.08v7.58zm37.79 3.55c-1.08.52-3.63 1.16-6.86 1.16-9.3 0-14.09-5.83-14.09-13.49C46.97 5.07 53.52 0 61.66 0c3.15 0 5.55.64 6.63 1.16l-1.28 4.83c-1.2-.52-2.91-1-5.11-1-4.79 0-8.54 2.91-8.54 8.9 0 5.35 3.19 8.74 8.58 8.74 1.88 0 3.87-.36 5.11-.88l.87 4.79z" fill="#fff"/><path d="M.34 34.63c.53-.13 1.38-.21 2.22-.21 1.21 0 2 .21 2.57.68.49.36.8.92.8 1.66 0 .92-.61 1.72-1.59 2.06v.04c.89.21 1.94.95 1.94 2.34 0 .81-.32 1.42-.81 1.88-.64.6-1.7.88-3.24.88-.84 0-1.48-.06-1.88-.11v-9.22zm1.22 3.85h1.1c1.27 0 2.02-.68 2.02-1.59 0-1.09-.82-1.53-2.05-1.53-.56 0-.88.04-1.07.08v3.04zm0 4.49c.25.04.59.06 1.02.06 1.26 0 2.41-.46 2.41-1.83 0-1.27-1.1-1.81-2.43-1.81h-1v3.58zm11.06-.7c0 .59.03 1.16.1 1.62h-1.1l-.11-.85h-.04c-.36.53-1.1 1-2.06 1-1.37 0-2.06-.96-2.06-1.94 0-1.63 1.45-2.53 4.06-2.51v-.14c0-.56-.15-1.58-1.53-1.56-.64 0-1.3.18-1.77.5l-.28-.82c.56-.35 1.38-.59 2.23-.59 2.08 0 2.58 1.41 2.58 2.76v2.53zm-1.2-1.82c-1.34-.03-2.86.21-2.86 1.52 0 .81.53 1.17 1.14 1.17.89 0 1.46-.56 1.66-1.13.04-.13.06-.27.06-.39v-1.17zm8.82 1.59c0 .71.01 1.33.06 1.86h-1.09l-.07-1.1h-.03c-.31.54-1.03 1.26-2.23 1.26-1.06 0-2.33-.6-2.33-2.96v-3.95h1.23v3.72c0 1.28.4 2.16 1.51 2.16.82 0 1.39-.57 1.62-1.13.07-.17.11-.39.11-.63v-4.13h1.23v4.9zm2.05-8.05h1.23v4.23h.03c.43-.75 1.21-1.23 2.3-1.23 1.67 0 2.85 1.39 2.85 3.43 0 2.43-1.53 3.63-3.04 3.63-.98 0-1.74-.38-2.26-1.27h-.03l-.07 1.12h-1.06c.04-.46.06-1.14.06-1.74v-8.17zm1.22 7.2c0 .15.01.31.04.45.24.85.96 1.44 1.84 1.44 1.3 0 2.05-1.05 2.05-2.6 0-1.37-.7-2.53-2.01-2.53-.84 0-1.62.59-1.86 1.51-.04.15-.07.32-.07.52v1.21zm7.42-.45c.03 1.65 1.07 2.33 2.3 2.33.88 0 1.42-.15 1.87-.35l.22.88c-.43.2-1.19.43-2.26.43-2.06 0-3.32-1.38-3.32-3.4 0-2.04 1.21-3.64 3.18-3.64 2.2 0 2.78 1.94 2.78 3.18 0 .25-.01.43-.04.57h-4.73zm3.58-.88c.01-.78-.32-1.99-1.69-1.99-1.26 0-1.79 1.14-1.88 1.99h3.57zm4.19-4.34v1.62h1.76v.93H38.7v3.63c0 .84.24 1.31.92 1.31.33 0 .53-.03.71-.08l.06.93c-.24.08-.61.17-1.09.17-.57 0-1.03-.2-1.33-.52-.33-.38-.47-.98-.47-1.77v-3.67h-1.05v-.93h1.05V35.9l1.2-.38zm3.14 3.73c0-.8-.01-1.48-.06-2.11h1.07l.06 1.33h.04c.31-.91 1.06-1.48 1.88-1.48.13 0 .22.01.33.03v1.16c-.13-.01-.25-.03-.42-.03-.87 0-1.48.66-1.65 1.56-.03.18-.04.38-.04.57v3.61h-1.23v-4.64zm5.12 1.49c.03 1.65 1.07 2.33 2.3 2.33.88 0 1.42-.15 1.87-.35l.22.88c-.43.2-1.19.43-2.26.43-2.06 0-3.32-1.38-3.32-3.4 0-2.04 1.21-3.64 3.18-3.64 2.2 0 2.78 1.94 2.78 3.18 0 .25-.01.43-.04.57h-4.73zm3.59-.88c.01-.78-.32-1.99-1.69-1.99-1.26 0-1.79 1.14-1.88 1.99h3.57zm8.36 2.18c0 .71.01 1.33.06 1.86h-1.09l-.07-1.1h-.03c-.31.54-1.03 1.26-2.23 1.26-1.06 0-2.33-.6-2.33-2.96v-3.95h1.23v3.72c0 1.28.4 2.16 1.51 2.16.82 0 1.39-.57 1.62-1.13.07-.17.11-.39.11-.63v-4.13h1.23v4.9zm7.69 0c0 .71.01 1.33.06 1.86h-1.09l-.07-1.1h-.03c-.31.54-1.03 1.26-2.23 1.26-1.06 0-2.33-.6-2.33-2.96v-3.95h1.23v3.72c0 1.28.4 2.16 1.51 2.16.82 0 1.39-.57 1.62-1.13.07-.17.11-.39.11-.63v-4.13h1.23v4.9zm2.04-3.07c0-.71-.01-1.27-.06-1.83h1.09l.07 1.1h.03c.33-.63 1.12-1.26 2.23-1.26.93 0 2.39.56 2.39 2.87v4.03h-1.23V40c0-1.09-.4-2.01-1.56-2.01-.8 0-1.42.57-1.65 1.26-.06.15-.08.38-.08.57v4.07h-1.23v-4.92zm13.52 3.93c0 1.56-.32 2.5-.96 3.1-.67.6-1.62.81-2.47.81-.81 0-1.7-.2-2.25-.56l.31-.95c.45.29 1.14.54 1.98.54 1.26 0 2.18-.66 2.18-2.37v-.74h-.03c-.36.63-1.1 1.13-2.15 1.13-1.67 0-2.87-1.42-2.87-3.31 0-2.29 1.49-3.57 3.06-3.57 1.17 0 1.8.6 2.11 1.17h.03l.04-1.02h1.09c-.04.47-.06 1.03-.06 1.84v3.93zm-1.22-3.11c0-.2-.01-.38-.07-.54-.22-.73-.81-1.31-1.72-1.31-1.17 0-2.01.99-2.01 2.57 0 1.31.68 2.43 2 2.43.77 0 1.45-.47 1.7-1.27.07-.2.1-.43.1-.66v-1.22zm13.99 3.68c-.54.21-1.63.52-2.9.52-1.42 0-2.6-.36-3.52-1.24-.81-.78-1.31-2.04-1.31-3.5 0-2.8 1.94-4.86 5.09-4.86 1.09 0 1.95.24 2.36.43l-.31.99c-.5-.24-1.13-.4-2.08-.4-2.29 0-3.78 1.42-3.78 3.78 0 2.39 1.42 3.79 3.63 3.79.8 0 1.34-.11 1.62-.25v-2.8h-1.9v-.98h3.1v4.52zm1.8-4.5c0-.71-.03-1.27-.06-1.83h1.07l.06 1.09h.04c.38-.64 1-1.24 2.13-1.24.91 0 1.6.56 1.9 1.35h.03c.21-.39.49-.67.77-.88.4-.31.84-.47 1.48-.47.91 0 2.23.59 2.23 2.93v3.98h-1.2v-3.82c0-1.31-.49-2.08-1.46-2.08-.71 0-1.24.52-1.46 1.1-.06.18-.1.4-.1.61v4.19h-1.2v-4.06c0-1.07-.47-1.84-1.41-1.84-.75 0-1.33.61-1.52 1.23-.07.18-.1.39-.1.6v4.07h-1.2v-4.93zm11.65-4.98h1.23v4.23h.03c.43-.75 1.21-1.23 2.3-1.23 1.67 0 2.85 1.39 2.85 3.43 0 2.43-1.53 3.63-3.04 3.63-.98 0-1.74-.38-2.26-1.27h-.03l-.07 1.12h-1.06c.04-.46.06-1.14.06-1.74v-8.17zm1.22 7.2c0 .15.01.31.04.45.24.85.96 1.44 1.84 1.44 1.3 0 2.05-1.05 2.05-2.6 0-1.37-.7-2.53-2.01-2.53-.84 0-1.62.59-1.86 1.51-.04.15-.07.32-.07.52v1.21zm7.97-6.7v3.93h4.55v-3.93h1.23v9.4h-1.23v-4.41h-4.55v4.41h-1.23v-9.4h1.23z" fill="#ffeec7"/></svg>