<svg id="Layer_1" xmlns="http://www.w3.org/2000/svg" viewBox="0 0 181.63 117.75"><style>.st1{fill:#fff}</style><path d="M114.16 99.15h67.47M0 99.15h67.47" fill="none" stroke="#fff" stroke-width=".252" stroke-miterlimit="10"/><path class="st1" d="M22.5 115.87c-.39-.04-1.66-.2-1.89-1.77-.16-1.12.25-2.56.52-3.93.33-1.71-.68-1.62-1.85.47-.41.73-1.4 3.17-1.54 3.98-.16.82-.91.46-.8.19.07-.31.91-2.33.54-5.4-.14-1.2-.92-1.13-1.43-.22-1.13 2.01-1.32 3.13-1.91 5.96-.07.34-.77.35-.75.06.49-1.23.99-4.39.84-5.91-.38-3.7-4.4-1.1-4.7 1.38-.26 2.17 1.27 3.19 2.38 2.74 1.08-.45 1.4-2.76-.03-2.57-.16.02-.43-.14 0-.2 1.5-.22 1.87 2.1.06 2.94-1.24.57-3.33-.8-2.93-3.01.58-3.12 5.21-4.96 5.76-1.26.08.58.05 1.24-.04 1.85-.04.35.06.4.15.1.3-.98.5-1.45.97-2.25.51-.87 1.95-1.24 2.18.34.18 1.19.03 2.32-.07 3.48.24-.59.7-1.58 1.23-2.53 1.5-2.69 3.04-2.08 2.49.06-.42 1.61-1.22 5.45.92 5.36.36-.03.28.18-.1.14z"/><path class="st1" d="M22.78 114.61c.14.02.3-.08.38-.18.23-.31.4-.88.53-1.4.03-.17.18-.1.14.08-.12.52-.36 1.7-1.05 1.7-.7 0-.87-.72-.79-1.21l.23-1.51c.03-.18-.14-.34-.19-.39l.51-.01c.3 0 .32.1.27.33l-.32 1.74s-.04.2-.05.27c-.01.3.07.56.34.58zm-.13-3.3c-.21 0-.39-.17-.42-.38-.01-.21.15-.38.35-.38.21 0 .4.17.42.38.01.21-.14.38-.35.38z"/><path class="st1" d="M25.59 111.48h-.54c-.18.54-.44 1.03-.86 1.53-.03.24.02.95.02.95.01.62.46.71.71.48.35-.32.52-.9.65-1.4.03-.17.18-.13.13.06-.2.86-.3 1.11-.56 1.45-.38.48-1.34.33-1.45-.7-.07-.63.03-1.65.15-2.37h-.48c-.1 0-.13-.21-.03-.21h.56c.1-.47.22-.92.36-1.32.37-1.13 1.41-.97 1.08.52-.06.28-.13.54-.21.8h.45c.08.01.11.21.02.21zm-1.19 0c-.08.46-.15.91-.2 1.24.27-.36.48-.79.64-1.24h-.44zm.38-1.56c-.15.32-.23.83-.33 1.36h.46c.1-.32.18-.64.24-.95.08-.39.01-1.22-.37-.41z"/><path class="st1" d="M27.45 111.48h-.54c-.19.54-.44 1.03-.87 1.53-.02.24.02.95.02.95.01.62.46.71.71.48.35-.32.52-.9.64-1.4.03-.17.18-.13.13.06-.2.86-.3 1.11-.56 1.45-.38.48-1.34.33-1.45-.7-.07-.63.03-1.65.15-2.37h-.48c-.1 0-.13-.21-.03-.21h.56c.1-.47.22-.92.36-1.32.37-1.13 1.41-.97 1.08.52-.06.28-.13.54-.21.8h.45c.1.01.13.21.04.21zm-1.19 0c-.08.46-.15.91-.2 1.24.26-.36.48-.79.64-1.24h-.44zm.38-1.56c-.15.32-.23.83-.33 1.36h.46c.1-.32.18-.64.24-.95.08-.39.01-1.22-.37-.41z"/><path class="st1" d="M28.51 114.85c-.46 0-.96-.31-1.11-.89-.14-.56 0-1.25.29-1.74.34-.56.96-.91 1.44-.6.42.27.3.9-.18 1.36-.24.21-.79.41-1.04.41-.06.33.01 1.27.63 1.27.82 0 1.05-1.1 1.15-1.59.03-.17.22-.19.17.01-.17.74-.32 1.77-1.35 1.77zm-.23-2.5c-.17.3-.3.71-.35.87.17 0 .62-.13.89-.41.61-.64.27-1.85-.54-.46z"/><path class="st1" d="M31.85 114.85c-.33 0-.83-.22-.76-1.09.02-.24.12-.56.28-.98.13-.36-.09-.61-.65.06-.25.29-.57.81-.85 1.84-.04.13-.12.14-.32.14-.14.01-.22 0-.3.06.23-.88.4-1.77.65-2.6.13-.45.22-.6.52-.58.12.01.28.07.4.04-.24.15-.53 1.08-.7 1.75.13-.23.34-.59.57-.84.35-.4 1.16-.99 1.51-.88 0 0-.57 1.75-.54 2.4.02.38.14.47.26.47.48 0 .78-1.22.88-1.61.03-.17.2-.1.15.08-.13.56-.38 1.74-1.1 1.74zm4.08-.24c.14.02.3-.08.38-.18.23-.31.4-.88.53-1.4.03-.17.18-.1.14.08-.12.52-.36 1.7-1.05 1.7-.7 0-.87-.72-.79-1.21l.23-1.51c.03-.18-.14-.34-.19-.39l.51-.01c.3 0 .32.1.27.33l-.32 1.74s-.04.2-.05.27c-.01.3.07.56.34.58zm-.13-3.3c-.21 0-.39-.17-.42-.38-.01-.21.15-.38.35-.38.21 0 .4.17.42.38.01.21-.14.38-.35.38z"/><path class="st1" d="M39 114.85c-.33 0-.83-.22-.76-1.09.02-.24.12-.56.27-.98.13-.36-.09-.61-.65.06-.25.29-.58.81-.85 1.84-.04.13-.12.14-.32.14-.14.01-.22 0-.3.06.23-.88.4-1.77.65-2.6.13-.45.22-.6.52-.58.12.01.28.07.4.04-.24.15-.53 1.08-.7 1.75.13-.23.34-.59.57-.84.35-.4 1.17-.99 1.51-.88 0 0-.57 1.75-.53 2.4.02.38.14.47.26.47.48 0 .78-1.22.88-1.61.03-.17.2-.1.15.08-.13.56-.39 1.74-1.1 1.74zm16.15 1.02c-.39-.04-1.66-.2-1.89-1.77-.16-1.12.24-2.56.52-3.93.33-1.71-.68-1.62-1.85.47-.41.73-1.4 3.17-1.54 3.98-.16.82-.91.46-.8.19.07-.31.91-2.33.54-5.4-.14-1.2-.92-1.13-1.43-.22-1.13 2.01-1.32 3.13-1.91 5.96-.07.34-.77.35-.75.06.49-1.23.99-4.39.84-5.91-.38-3.7-4.4-1.1-4.7 1.38-.26 2.17 1.27 3.19 2.38 2.74 1.08-.45 1.4-2.76-.03-2.57-.16.02-.43-.14 0-.2 1.5-.22 1.87 2.1.06 2.94-1.24.57-3.33-.8-2.93-3.01.58-3.12 5.21-4.96 5.76-1.26.08.58.05 1.24-.04 1.85-.04.35.06.4.15.1.3-.98.5-1.45.97-2.25.5-.87 1.95-1.24 2.18.34.18 1.19.03 2.32-.07 3.48.24-.59.7-1.58 1.23-2.53 1.5-2.69 3.04-2.08 2.49.06-.42 1.61-1.22 5.45.92 5.36.36-.03.28.18-.1.14z"/><path class="st1" d="M57.13 114.8c-.42 0-.77-.44-.71-1.19-.18.56-.51 1.19-.97 1.19-.19 0-.53-.06-.69-.42-.18-.4-.03-.74.05-1.08-.06 0-.15-.03-.12-.15l.09-.33c.1-.35.2-.74.27-1.02.04-.15.14-.2.31-.2h.57c-.18.16-.28.27-.41.78 0 0-.21.85-.29 1.2-.21.97.27 1.34.7.64.37-.6.62-1.69.8-2.43.04-.15.14-.2.32-.2h.5c-.22.21-.28.34-.42.92-.13.52-.29 1.16-.26 1.48.01.4.18.55.31.56.46 0 .71-.88.86-1.55.03-.17.2-.1.15.08-.14.65-.38 1.72-1.06 1.72zm-1.29-4.12c-.18 0-.35-.12-.39-.31-.04-.18.05-.31.22-.31s.34.12.39.31c.04.18-.05.31-.22.31zm1.19 0c-.18 0-.34-.12-.39-.31-.04-.18.05-.31.22-.31.18 0 .34.12.39.31.05.18-.04.31-.22.31z"/><path class="st1" d="M60.2 114.85c-.33 0-.83-.22-.76-1.09.02-.24.12-.56.28-.98.13-.36-.09-.61-.65.06-.25.29-.57.81-.85 1.84-.04.13-.12.14-.32.14-.14.01-.22 0-.3.06.23-.88.4-1.77.65-2.6.13-.45.22-.6.52-.58.12.01.28.07.4.04-.24.15-.53 1.08-.7 1.75.13-.23.34-.59.57-.84.35-.4 1.16-.99 1.51-.88 0 0-.57 1.75-.54 2.4.02.38.14.47.26.47.48 0 .78-1.22.88-1.61.03-.17.2-.1.15.08-.13.56-.38 1.74-1.1 1.74z"/><path class="st1" d="M62.37 114.85c-1.47 0-1.39-1.67-.94-2.58.23-.46.62-.73 1.07-.73.46 0 .75.26.8.64.04.31-.25.7-.5.49.07-.12.17-.31.17-.47 0-.33-.12-.46-.3-.46-.33 0-.63.43-.8.8-.11.24-.3.88-.17 1.42.09.37.32.72.72.72.81 0 1.04-.9 1.23-1.64.04-.17.18-.12.15.06-.22.98-.41 1.75-1.43 1.75z"/><path class="st1" d="M65.72 114.85c-.33 0-.82-.22-.75-1.09.02-.24.12-.56.27-.98.13-.36-.09-.61-.65.06-.25.29-.58.81-.85 1.84-.03.13-.12.14-.31.14-.14.01-.22 0-.3.06.38-1.56.82-3.46 1.31-5.12.12-.39.22-.6.52-.59.12.01.27.06.4.04-.31.42-.96 2.7-1.35 4.25.17-.32.36-.6.55-.82.35-.4 1.17-.99 1.51-.88 0 0-.57 1.75-.53 2.4.02.38.14.48.26.49.43.03.76-1.24.86-1.64.04-.17.2-.1.15.09-.15.65-.4 1.75-1.09 1.75z"/><path class="st1" d="M67.76 114.85c-.46 0-.96-.31-1.11-.89-.14-.56 0-1.25.29-1.74.34-.56.96-.91 1.44-.6.42.27.3.9-.18 1.36-.24.21-.79.41-1.04.41-.06.33.01 1.27.62 1.27.82 0 1.05-1.1 1.15-1.59.03-.17.21-.19.17.01-.16.74-.31 1.77-1.34 1.77zm-.22-2.5c-.17.3-.3.71-.35.87.17 0 .62-.13.89-.41.6-.64.27-1.85-.54-.46z"/><path class="st1" d="M71.11 114.85c-.33 0-.83-.22-.76-1.09.02-.24.12-.56.27-.98.13-.36-.09-.61-.65.06-.25.29-.58.81-.85 1.84-.04.13-.12.14-.32.14-.14.01-.22 0-.3.06.23-.88.4-1.77.65-2.6.13-.45.22-.6.52-.58.12.01.28.07.4.04-.24.15-.53 1.08-.7 1.75.13-.23.34-.59.57-.84.35-.4 1.17-.99 1.51-.88 0 0-.57 1.75-.53 2.4.02.38.14.47.26.47.48 0 .78-1.22.88-1.61.03-.17.2-.1.15.08-.13.56-.39 1.74-1.1 1.74zm1.19.91c-.1.05-.15-.06-.04-.1.32-.11.57-.39.51-.81-.06.06-.14.09-.24.09a.42.42 0 0 1-.41-.38c-.02-.21.14-.38.35-.38.27 0 .46.2.52.45.15.61-.33 1-.69 1.13zm6-.96c-.42 0-.77-.44-.72-1.19-.18.56-.51 1.19-.97 1.19-.19 0-.53-.06-.69-.42-.18-.4-.03-.74.05-1.08-.06 0-.15-.03-.12-.15l.09-.33c.1-.35.2-.74.27-1.02.04-.15.14-.2.32-.2h.57c-.18.16-.28.27-.41.78 0 0-.21.85-.29 1.2-.21.97.27 1.34.7.64.38-.6.62-1.69.8-2.43.04-.15.14-.2.31-.2h.5c-.22.21-.28.34-.42.92-.13.52-.29 1.16-.26 1.48.01.4.18.55.31.56.46 0 .71-.88.86-1.55.03-.17.2-.1.15.08-.12.65-.37 1.72-1.05 1.72z"/><path class="st1" d="M82.97 114.85c-.33 0-.83-.22-.76-1.09.02-.24.12-.56.27-.98.14-.36-.09-.61-.65.06-.31.37-.85 1.41-.83 1.97-.21 0-.4-.24-.42-.51-.03-.41.06-.72.13-1.06.15-.63.29-1.31-.47-.4-.25.29-.56.79-.84 1.81-.03.14-.11.15-.32.15-.13.01-.21 0-.29.06.23-.88.38-1.75.64-2.59.13-.45.22-.6.52-.58.12.01.28.07.4.04-.24.15-.53 1.08-.7 1.75.13-.23.34-.59.57-.84.35-.4.8-.99 1.15-.88.18.06.28.22.24.41-.07.39-.25.85-.36 1.3.13-.23.35-.59.57-.84.35-.4 1.17-.99 1.51-.88 0 0-.56 1.75-.54 2.4.03.38.15.47.27.47.48 0 .79-1.18.88-1.61.03-.17.2-.1.15.08-.15.58-.41 1.76-1.12 1.76z"/><path class="st1" d="M86.74 114.92c-.13 1.17-.95 2.83-2.3 2.83-.58 0-.93-.23-1.05-.72-.11-.46.17-.81.55-1.07.78-.54 1.58-.72 2.23-1 .03-.33.02-.66-.04-1.03-.05-.36-.12-.66-.18-.76-.16.58-.6 1.83-1.39 1.61-1.03-.4-.79-1.74-.3-2.56.39-.66 1.22-.98 2.05-.43.39.27.13.55-.04.27-.4-.66-1-.29-1.41.34-.49.76-.74 1.89-.21 2.1.6.23 1.16-1.19 1.2-1.78.03-.43.36-.26.49-.37.3.74.44 1.52.43 2.26.19-.16.38-.35.5-.6.21-.41.25-.81.3-.99.04-.17.21-.11.16.07-.24.99-.38 1.51-.99 1.83zm-.89.42c-.62.23-1.34.5-1.83.89-.51.4-.62 1.33.16 1.33.4 0 .87-.32 1.05-.48.23-.23.44-.57.62-.91.15-.32.25-.62.3-.94l-.3.11z"/><path class="st1" d="M88.68 114.85c-.46 0-.96-.31-1.11-.89-.14-.56 0-1.25.29-1.74.34-.56.96-.91 1.44-.6.42.27.3.9-.18 1.36-.24.21-.79.41-1.04.41-.06.33.01 1.27.62 1.27.82 0 1.05-1.1 1.15-1.59.03-.17.21-.19.17.01-.16.74-.31 1.77-1.34 1.77zm-.23-2.5c-.17.3-.3.71-.35.87.17 0 .62-.13.89-.41.61-.64.27-1.85-.54-.46z"/><path class="st1" d="M91.44 109.06h.05c.12.01.28.06.4.04-.25.35-.97 1.87-1.29 3.11-.25.94-.33 2.25.33 2.38.22.05.44-.14.67-.53.19-.31.35-.78.42-1.15.09-.61-.06-1.21-.63-1.15-.27.03-.35-.25.08-.19.7.1 1.04.72 1.06 1.31.02.78-.33 1.67-1.06 1.87-.99.29-1.51-.26-1.51-.93 0-.29.07-.64.16-1.02-.23.81-.44 1.48-.58 1.66-.06.06-.14-.04-.1-.12.43-.84.98-3.62 1.49-4.81.14-.34.31-.48.51-.47zm2.73 5.79c-.46 0-.96-.31-1.11-.89-.14-.56 0-1.25.29-1.74.34-.56.96-.91 1.44-.6.42.27.3.9-.18 1.36-.24.21-.79.41-1.04.41-.06.33.01 1.27.62 1.27.82 0 1.05-1.1 1.15-1.59.03-.17.21-.19.17.01-.16.74-.31 1.77-1.34 1.77zm-.22-2.5c-.17.3-.3.71-.35.87.17 0 .62-.13.89-.41.61-.64.27-1.85-.54-.46z"/><path class="st1" d="M97.52 114.85c-.33 0-.83-.22-.76-1.09.02-.24.12-.56.27-.98.13-.36-.09-.61-.65.06-.25.29-.58.81-.85 1.84-.04.13-.12.14-.32.14-.14.01-.22 0-.3.06.23-.88.4-1.77.65-2.6.13-.45.22-.6.52-.58.12.01.28.07.4.04-.24.15-.53 1.08-.7 1.75.13-.23.34-.59.57-.84.35-.4 1.17-.99 1.51-.88 0 0-.57 1.75-.53 2.4.02.38.14.47.26.47.48 0 .78-1.22.88-1.61.03-.17.2-.1.15.08-.13.56-.38 1.74-1.1 1.74zm5.49-3.12c-.05.67-.17 3.38-1.52 3.13-.58-.11-.55-.95-.47-1.67-.06.16-.2.1-.17-.03l.09-.32c.1-.36.02-1.09-.25-1.15 0 0 .37-.07.44-.07.26-.03.33-.07.43.38.07.31.05.82 0 1.13-.08.61-.15 1.3.12 1.41.49.2.81-.59.96-1.51-.2-.29-.32-.68-.3-.93.06-.83.77-.83.69-.42-.02.02-.03.03-.02.05zm2.54 3.01c-.28 0-.5-.1-.65-.24-.21.2-.46.33-.73.32-.71-.02-1.02-.86-.86-1.69.16-.85.75-1.58 1.39-1.56.71.01 1.02.87.87 1.69-.06.33-.24.76-.52 1.1.11.14.27.23.49.23.59 0 .8-1.15.91-1.6.02-.09.19-.06.16.08-.08.35-.28 1.67-1.06 1.67zm-1.62-1.66c-.18.76-.1 1.41.25 1.52.19.05.4-.05.58-.23-.14-.15-.23-.32-.26-.46-.04-.21 0-.4.23-.4.16 0 .31.13.35.28.01.04.01.07.01.1.07-.15.13-.33.17-.5.18-.76.06-1.42-.29-1.53-.44-.11-.88.49-1.04 1.22z"/><path class="st1" d="M108.6 114.85c-.33 0-.83-.22-.76-1.09.02-.24.12-.56.28-.98.13-.36-.09-.61-.65.06-.25.29-.58.81-.85 1.84-.04.13-.12.14-.32.14-.14.01-.22 0-.3.06.23-.88.4-1.77.65-2.6.13-.45.22-.6.52-.58.12.01.28.07.4.04-.24.15-.53 1.08-.7 1.75.13-.23.34-.59.57-.84.35-.4 1.16-.99 1.51-.88 0 0-.57 1.75-.54 2.4.02.38.14.47.26.47.48 0 .78-1.22.88-1.61.03-.17.2-.1.15.08-.14.56-.39 1.74-1.1 1.74zm11.44-6.53c-.79 2.53.12 7.4-3.93 8.03-2.03.32-4.66-.94-4.62-3.26.01-.67.56-1.09.8-1.12.14-.02.16.09.1.13-.15.07-.68.57-.59 1.4.23 2.03 2.6 2.62 3.83 2.33 2.5-.6 3.15-2.84 3.47-4.43.08-.4.5-2.45.67-3.08-.8.09-1.8.13-2.61.37-2.56.76-1.55 3.93.03 3.31.57-.23.61-1.14.35-1.74-.04-.09.1-.07.18.07.42.65.17 1.6-.43 1.84-1.9.76-3.91-2.9-.31-3.76.96-.22 2.07-.24 2.86-.32.04-.11.26-.65.54-.74.64-.18 1.12.81-.34.97zm.11 4.08c-.12-.05.39 1.21 1.11 2.27.61.9 1.29 1.45 2.01 1.45.73 0 1.51-.31 1.69-.98.03-.19.21-.19.14.07-.17.68-.99 1.3-1.78 1.3-1.02 0-2-.76-2.68-1.74-.8-1.15-1.23-2.5-1.08-2.58.69.06 4.06-2.15 5.27-5.11.14-.32.36-.14.26.12-.88 2.5-3.43 4.79-4.94 5.2zm.27-4.7c-.1.09-.2.28-.27.39.18-.03.3-.07.38-.11.36-.2.13-.53-.11-.28z"/><path class="st1" d="M125.01 114.8c-.42 0-.77-.44-.72-1.19-.18.56-.51 1.19-.97 1.19-.19 0-.53-.06-.69-.42-.18-.4-.03-.74.05-1.08-.06 0-.15-.03-.12-.15l.09-.33c.1-.35.2-.74.27-1.02.04-.15.14-.2.32-.2h.57c-.18.16-.28.27-.41.78 0 0-.21.85-.29 1.2-.21.97.27 1.34.7.64.38-.6.62-1.69.8-2.43.04-.15.14-.2.31-.2h.5c-.22.21-.28.34-.42.92-.13.52-.29 1.16-.26 1.48.01.4.18.55.31.56.46 0 .71-.88.86-1.55.03-.17.2-.1.15.08-.13.65-.37 1.72-1.05 1.72z"/><path class="st1" d="M128.08 114.85c-.33 0-.83-.22-.76-1.09.02-.24.12-.56.28-.98.13-.36-.09-.61-.65.06-.25.29-.57.81-.85 1.84-.04.13-.12.14-.32.14-.14.01-.22 0-.3.06.23-.88.4-1.77.65-2.6.13-.45.22-.6.52-.58.12.01.28.07.4.04-.24.15-.53 1.08-.7 1.75.13-.23.34-.59.57-.84.35-.4 1.16-.99 1.51-.88 0 0-.57 1.75-.54 2.4.02.38.14.47.26.47.48 0 .78-1.22.88-1.61.03-.17.2-.1.15.08-.13.56-.39 1.74-1.1 1.74z"/><path class="st1" d="M130.04 114.75c-.12.06-.24.09-.36.09-1.12 0-1.22-1.29-.78-1.31.14-.47.3-1.08.41-1.61.08-.36.26-.75.58-.8.14-.02.25 0 .36.05.19.08.19.24 0 .16-.1-.04-.22-.06-.3-.01-.38.21-.13.85.09 1.18.23.35.52.69.6 1.1.07.36-.11.79-.41 1.03l.07.01c.33.05.57-.15.73-.43.15-.26.3-.84.4-1.22.02-.09.18-.04.15.05-.16.79-.42 2.03-1.54 1.71zm-.52-2.92c-.13.5-.33 1.31-.46 1.72 0 0 .2-.01.27.3.07.35.33.61.56.72.17-.16.27-.47.18-.97-.12-.58-.53-1.35-.55-1.77zm-.31 2.13c-.23.3 0 .74.36.74.07 0 .13-.01.18-.04-.22-.13-.43-.35-.54-.7z"/><path class="st1" d="M133.32 111.48h-.54c-.19.54-.44 1.03-.87 1.53-.02.24.02.95.02.95.01.62.46.71.71.48.35-.32.52-.9.64-1.4.03-.17.18-.13.13.06-.2.86-.3 1.11-.56 1.45-.38.48-1.34.33-1.45-.7-.07-.63.03-1.65.15-2.37h-.48c-.1 0-.13-.21-.03-.21h.56c.1-.47.22-.92.36-1.32.37-1.13 1.41-.97 1.08.52-.06.28-.13.54-.21.8h.45c.1.01.13.21.04.21zm-1.19 0c-.08.46-.15.91-.2 1.24.26-.36.48-.79.64-1.24h-.44zm.37-1.56c-.15.32-.23.83-.33 1.36h.46c.1-.32.18-.64.24-.95.08-.39.01-1.22-.37-.41zm5.59 4.88c-.42 0-.77-.44-.72-1.19-.18.56-.51 1.19-.97 1.19-.19 0-.53-.06-.69-.42-.18-.4-.03-.74.05-1.08-.06 0-.15-.03-.12-.15l.09-.33c.1-.35.2-.74.27-1.02.04-.15.14-.2.32-.2h.57c-.18.16-.28.27-.41.78 0 0-.21.85-.29 1.2-.21.97.27 1.34.7.64.37-.6.62-1.69.8-2.43.04-.15.14-.2.31-.2h.5c-.22.21-.28.34-.42.92-.13.52-.29 1.16-.27 1.48.01.4.18.55.31.56.46 0 .71-.88.86-1.55.03-.17.2-.1.15.08-.12.65-.36 1.72-1.04 1.72z"/><path class="st1" d="M141.16 114.85c-.33 0-.83-.22-.76-1.09.02-.24.12-.56.27-.98.13-.36-.09-.61-.65.06-.25.29-.58.81-.85 1.84-.04.13-.12.14-.32.14-.14.01-.22 0-.3.06.23-.88.4-1.77.65-2.6.13-.45.22-.6.52-.58.12.01.28.07.4.04-.24.15-.53 1.08-.7 1.75.13-.23.34-.59.57-.84.35-.4 1.17-.99 1.51-.88 0 0-.57 1.75-.53 2.4.02.38.14.47.26.47.48 0 .78-1.22.88-1.61.03-.17.2-.1.15.08-.13.56-.38 1.74-1.1 1.74z"/><path class="st1" d="M144.41 113.57c-.04.21-.14.99.3.99.46 0 .72-1.15.83-1.54.03-.17.19-.13.15.06-.1.52-.34 1.73-1.09 1.73-.15 0-.32-.07-.48-.25-.14-.16-.28-.44-.28-.82-.17.46-.42 1.2-1.11 1.03-.93-.24-.78-1.74-.3-2.56.37-.6 1.1-.93 1.87-.54.24-.85.44-1.7.54-2.2.08-.42.21-.51.51-.48.12.01.27.06.41.04-.22.26-1.12 3.26-1.35 4.54zm-1.78-.26c-.33 1.15.36 1.73.88.61.23-.48.5-1.28.74-2.1-.57-.45-1.34.58-1.62 1.49zm13.39-4.99c-.79 2.53.12 7.4-3.93 8.03-2.03.32-4.66-.94-4.62-3.26.01-.67.56-1.09.8-1.12.14-.02.16.09.1.13-.15.07-.68.57-.59 1.4.23 2.03 2.6 2.62 3.83 2.33 2.5-.6 3.15-2.84 3.47-4.43.08-.4.5-2.45.67-3.08-.8.09-1.8.13-2.6.37-2.56.76-1.55 3.93.03 3.31.57-.23.61-1.14.35-1.74-.04-.09.09-.07.18.07.42.65.17 1.6-.43 1.84-1.9.76-3.91-2.9-.32-3.76.96-.22 2.07-.24 2.86-.32.04-.11.26-.65.54-.74.64-.18 1.12.81-.34.97zm.11 4.08c-.12-.05.38 1.21 1.11 2.27.61.9 1.29 1.45 2.01 1.45s1.51-.31 1.69-.98c.03-.19.21-.19.14.07-.17.68-.99 1.3-1.78 1.3-1.02 0-2-.76-2.68-1.74-.8-1.15-1.23-2.5-1.08-2.58.69.06 4.06-2.15 5.27-5.11.13-.32.36-.14.26.12-.88 2.5-3.43 4.79-4.94 5.2zm.27-4.7c-.1.09-.2.28-.27.39.18-.03.3-.07.38-.11.36-.2.13-.53-.11-.28z"/><path class="st1" d="M160.99 114.8c-.42 0-.77-.44-.71-1.19-.18.56-.51 1.19-.97 1.19-.19 0-.53-.06-.69-.42-.18-.4-.03-.74.05-1.08-.06 0-.15-.03-.12-.15l.09-.33c.1-.35.2-.74.27-1.02.04-.15.14-.2.31-.2h.57c-.18.16-.28.27-.41.78 0 0-.21.85-.29 1.2-.21.97.27 1.34.7.64.37-.6.62-1.69.8-2.43.04-.15.14-.2.32-.2h.5c-.22.21-.28.34-.42.92-.13.52-.29 1.16-.26 1.48.01.4.18.55.31.56.46 0 .71-.88.86-1.55.03-.17.2-.1.15.08-.14.65-.38 1.72-1.06 1.72z"/><path class="st1" d="M162.42 113.02c-.01.16-.05.38-.05.61-.01 1.12.77 1.27 1.1.59.2-.44.34-.94.4-1.18.05-.16.19-.14.15.05-.11.49-.29 1.75-1.23 1.75-1.04 0-.9-1.28-.88-1.83.04-1.04.3-2.38.62-3.28.39-1.11 1.43-.98 1.12.51-.2.94-.52 1.95-1.23 2.78zm.73-3.35c-.3.64-.62 2.31-.73 3.05.5-.67.9-1.77 1.05-2.63.09-.43.01-1.14-.32-.42z"/><path class="st1" d="M165.77 111.48h-.54c-.19.54-.44 1.03-.87 1.53-.02.24.02.95.02.95.01.62.46.71.71.48.35-.32.52-.9.64-1.4.03-.17.18-.13.13.06-.2.86-.3 1.11-.56 1.45-.38.48-1.34.33-1.45-.7-.07-.63.03-1.65.15-2.37h-.48c-.1 0-.13-.21-.03-.21h.56c.1-.47.22-.92.36-1.32.37-1.13 1.41-.97 1.08.52-.06.28-.13.54-.21.8h.45c.11.01.14.21.04.21zm-1.19 0c-.08.46-.15.91-.2 1.24.26-.36.48-.79.64-1.24h-.44zm.38-1.56c-.15.32-.23.83-.33 1.36h.46c.1-.32.18-.64.24-.95.08-.39.01-1.22-.37-.41z"/><path class="st1" d="M168.14 114.8c-.42 0-.77-.44-.71-1.19-.18.56-.51 1.19-.97 1.19-.19 0-.53-.06-.69-.42-.18-.4-.03-.74.05-1.08-.06 0-.15-.03-.12-.15l.09-.33c.1-.35.2-.74.27-1.02.04-.15.14-.2.31-.2h.57c-.18.16-.28.27-.41.78 0 0-.21.85-.29 1.2-.21.97.27 1.34.7.64.37-.6.62-1.69.8-2.43.04-.15.14-.2.32-.2h.5c-.22.21-.28.34-.42.92-.13.52-.29 1.16-.26 1.48.01.4.18.55.31.56.46 0 .71-.88.86-1.55.03-.17.2-.1.15.08-.14.65-.38 1.72-1.06 1.72z"/><path class="st1" d="M170.68 114.8c-.3.08-.93-.2-.79-1.17.05-.38.27-.86.31-1.1.06-.31-.3-.43-.82-.44l-.04.3c-.08.58-.28 1.62-.63 2.05-.06.06-.14-.04-.1-.12.5-.97.67-2.37.6-3.41-.03-.52.63-.29.65.34.01.26-.23.51-.36.62.35.02.83.01 1.27-.04.1.13.03.48-.02.72-.07.29-.61 1.99-.04 2.02.38.01.68-1.15.78-1.55.05-.16.18-.09.13.09-.14.56-.37 1.54-.94 1.69zm-95.17-13.36h-.39v-4.39l-1.21.14v-.28l1.61-.29v4.82zm4.76-3.57c0 .26-.08.48-.23.68s-.35.33-.6.42c.29.09.52.24.7.45s.26.45.26.73c0 .43-.14.76-.43.99-.29.23-.65.35-1.1.35-.46 0-.83-.11-1.11-.34s-.42-.56-.42-.99c0-.28.09-.53.26-.74.17-.21.4-.36.7-.45-.25-.09-.45-.23-.6-.42s-.22-.42-.22-.67c0-.41.13-.73.39-.96.26-.23.6-.34 1.01-.34.41 0 .75.11 1.01.34s.38.54.38.95zm-.26 2.28c0-.3-.11-.55-.33-.74-.22-.19-.49-.28-.82-.28-.33 0-.61.09-.82.28-.21.19-.32.43-.32.74s.11.56.32.73.49.27.83.27c.33 0 .61-.09.82-.27.22-.17.32-.42.32-.73zm-.13-2.28c0-.28-.1-.5-.29-.69-.19-.18-.43-.27-.72-.27s-.54.09-.72.26c-.19.17-.28.41-.28.7 0 .28.09.51.28.68.19.17.43.25.73.25.29 0 .53-.08.72-.25.19-.17.28-.4.28-.68zm4.32 1.69c0 .62-.13 1.09-.4 1.42-.27.33-.64.5-1.11.5-.47 0-.84-.17-1.11-.5-.27-.33-.41-.81-.41-1.42V98.5c0-.61.13-1.09.4-1.42.27-.33.64-.5 1.11-.5.47 0 .85.17 1.12.5.27.33.4.81.4 1.42v1.06zm-.39-1.13c0-.49-.1-.87-.29-1.13-.19-.26-.47-.4-.84-.4-.36 0-.64.13-.83.4-.19.26-.29.64-.29 1.13v1.19c0 .48.1.86.29 1.13.19.27.47.4.83.4s.64-.13.83-.4c.19-.27.29-.64.29-1.13v-1.19zm4.25 2.99H85.1v-.31l1.56-1.77c.29-.33.49-.6.61-.82s.18-.43.18-.63c0-.3-.08-.54-.25-.71-.17-.18-.4-.27-.71-.27-.36 0-.64.1-.83.3s-.28.47-.28.81h-.36l-.01-.02c-.01-.4.12-.73.39-1.01s.63-.41 1.09-.41c.41 0 .74.12.99.35.25.24.37.55.37.95 0 .26-.08.53-.25.8-.17.27-.4.57-.69.9l-1.31 1.49.01.02h2.46v.33zm4.45-2.25h-3.56v-.33h3.56v.33zm2.72 2.27h-.39v-4.39l-1.21.14v-.28l1.61-.29v4.82zm4.76-3.57c0 .26-.08.48-.23.68s-.35.33-.6.42c.29.09.52.24.7.45s.26.45.26.73c0 .43-.14.76-.43.99-.29.23-.65.35-1.1.35-.46 0-.83-.11-1.11-.34s-.42-.56-.42-.99c0-.28.09-.53.26-.74.17-.21.4-.36.7-.45-.25-.09-.45-.23-.6-.42s-.22-.42-.22-.67c0-.41.13-.73.39-.96.26-.23.6-.34 1.01-.34.41 0 .75.11 1.01.34s.38.54.38.95zm-.26 2.28c0-.3-.11-.55-.33-.74-.22-.19-.49-.28-.82-.28-.33 0-.61.09-.82.28-.21.19-.32.43-.32.74s.11.56.32.73.49.27.83.27c.33 0 .61-.09.82-.27.22-.17.32-.42.32-.73zm-.13-2.28c0-.28-.1-.5-.29-.69-.19-.18-.43-.27-.72-.27s-.54.09-.72.26c-.19.17-.28.41-.28.7 0 .28.09.51.28.68.19.17.43.25.73.25.29 0 .53-.08.72-.25.18-.17.28-.4.28-.68zm3.71 2.01h.75v.33h-.75v1.2h-.39v-1.2h-2.24v-.22l2.2-3.35h.43v3.24zm-2.17 0h1.77v-2.72l-.02-.01-.17.36-1.58 2.37zm6.3-2.01c0 .26-.08.48-.23.68s-.35.33-.6.42c.29.09.52.24.7.45s.26.45.26.73c0 .43-.14.76-.43.99-.29.23-.65.35-1.1.35-.46 0-.83-.11-1.11-.34s-.42-.56-.42-.99c0-.28.09-.53.26-.74.17-.21.4-.36.7-.45-.25-.09-.45-.23-.6-.42s-.22-.42-.22-.67c0-.41.13-.73.39-.96.26-.23.6-.34 1.01-.34.41 0 .75.11 1.01.34s.38.54.38.95zm-.26 2.28c0-.3-.11-.55-.33-.74-.22-.19-.49-.28-.82-.28-.33 0-.61.09-.82.28-.21.19-.32.43-.32.74s.11.56.32.73.49.27.83.27c.33 0 .61-.09.82-.27.21-.17.32-.42.32-.73zm-.14-2.28c0-.28-.1-.5-.29-.69-.19-.18-.43-.27-.72-.27s-.54.09-.72.26c-.19.17-.28.41-.28.7 0 .28.09.51.28.68.19.17.43.25.73.25.29 0 .53-.08.72-.25.19-.17.28-.4.28-.68z"/><path d="M89.03 6.21s-.02-.04-.02-.07c-.01-.06-.03-.12-.04-.18.01.06.03.12.04.18 0 .03.02.07.02.07zm-3.21 38.54c.01.01.02.01.02.02l-.02-.02zm17.17-21.04c-.04.07-.08.13-.13.19.05-.06.09-.13.13-.19zM86.94 44.85c.02-.05.04-.11.06-.16-.02.05-.04.11-.06.16zm2.04-38.19c.05.02.1.04.15.05-.05-.01-.1-.03-.15-.05zm.33.58c0 .02.01.03.02.04.06.28.2.55.31.82.02.05.12.14.14.13.34-.23.53.03.76.21.05.04.12.06.18.09.01-.07.05-.15.02-.21-.09-.17-.18-.34-.3-.49-.17-.2-.23-.65-.08-.86-.38.09-.73.18-1.05.27zm-.08-.81c-.02-.03-.09-.01-.13-.02-.11-.03-.22-.06-.32-.09.11.03.22.06.32.09.04.01.1 0 .13.02zm-4.07 38.53h.03c.08.04.17.07.25.11-.08-.04-.17-.07-.25-.11 0-.01-.03 0-.03 0zm.68-.19zm.02.24l-.04.04c.02-.01.03-.02.04-.04zm-.06.27l.01.01s0-.01-.01-.01zm-.06-.61h-.17.17zm1.27-.04c-.05-.16-.13-.22-.24-.18.12-.04.2.02.24.18zm-1.82.32c.01-.06.01-.12.02-.18-.01.06-.01.12-.02.18zm5.86-5.68c.09-.05.18-.11.26-.16-.08.06-.17.11-.26.16zm-5.91-5.04zm0 0zm1.87-4.59zm8.26 6.5c.06-.12.13-.24.19-.35-.06.12-.12.23-.19.35zm-.17.17c.06-.05.11-.11.17-.16-.06.05-.12.11-.17.16zm-8.09-6.67zm4.58 9.47c.12-.06.25-.12.37-.18-.12.06-.25.12-.37.18zm12.76 3.17c-.01-.06 0-.12.01-.18-.01.06-.02.12-.01.18zm-.92-18.94c-.05.04-.1.08-.14.13.04-.04.09-.08.14-.13zm-.44.35zm-18.37 6.05zm18.65-6.17l.16.03c-.05-.01-.1-.02-.16-.03zM86.65 44.76h.08-.08zm17.8-2.01c-.02-.15-.08-.3-.1-.46.02.15.08.3.1.46zm.05-.95a.75.75 0 0 0-.14.24c.02-.08.07-.16.14-.24zm-2.58-22.1c0-.03.01-.06.01-.08-.01.03-.01.05-.01.08zM86.75 44.77c.02.03.05.06.07.08a.572.572 0 0 1-.07-.08zm.99-33.13c-.03.03-.07.06-.1.1l.1-.1zm-1.92 33.65c-.02-.03-.04-.05-.06-.08.02.03.04.05.06.08zm-.07-.08c-.03-.03-.05-.07-.08-.1.03.04.06.07.08.1zm.36.19h-.18.18zm-.55-.46l-.09-.09.09.09zm-.07-.08h-.01l-.01-.01zm3.78-14.6zm-.2.27c-.06.07-.13.13-.2.2.07-.07.14-.13.2-.2zm.28-.55zm-1.22-.21zm1.17-.2c.04.12.05.23.05.33.01-.09 0-.2-.05-.33zm-.92 1.59zm-.26-1.4c-.19-.12-.4-.19-.65-.17.06 0 .12-.01.17 0 .17.02.33.08.48.17zm2.79 4.02zm-.48-.34c-.03-.01-.06-.03-.1-.04.03.01.06.03.1.04zm-5.29.79zm5.89-.34c.01-.03.01-.06.02-.1-.01.04-.01.07-.02.1zm-1.31-.43zm.31-.07h.04-.04zm2.15-.16c-.02-.02-.03-.04-.04-.06.01.01.03.04.04.06zm-5.56-3.8c.13-.05.26.24.39.21-.13.03-.26-.26-.39-.21zm4.97 9.49c0 .06 0 .12-.01.18.01-.05.01-.11.01-.18zm0 0c-.09.06-.17.12-.26.18.09-.05.18-.12.26-.18zm3.44-2.56c-.01 0-.02.01-.03.01.01 0 .02-.01.03-.01zm-10.01-.22l.01-.02c.03-.02.05-.05.08-.07-.03.02-.05.05-.08.07l-.01.02zm2.91-1.55c-.31 0-.63 0-.94.01.32 0 .63-.01.94-.01zm-2.33 3.74c-.12-.08-.21-.18-.29-.29.08.11.18.21.29.29zm-.95-8.57l-.03-.03c.01.02.02.02.03.03zm7.02 9.08h.01v-.01zm2.44-16.35c-.39.07-.63-.23-.82-.43-.11-.11-.13-.12-.26-.11-.29.03-.59.08-.88.04-.23-.03-.35-.07-.62-.03-.2.03-.46.07-.59-.04-.23-.17-.28.11-.39.08-.15-.04-.4-.18-.4-.25.02-.2.11-.48.26-.56.29-.15.63-.2.96-.25.56-.08 1.13-.2 1.69-.18.45.01.94-.14 1.36.17.05.03.21-.05.29-.12.03-.02.01-.19-.03-.21-.47-.21-.81-.75-1.45-.55-.24.07-.52.03-.78.02-.29-.01-.29-.02-.34.28 0 .02-.03.05-.05.06-.19.09-.37.19-.57.25-.06.02-.16-.04-.22-.09-.03-.02-.05-.1-.04-.14.05-.14.05-.13-.06-.15-.39-.06-.78.38-1.19.01-.02-.02-.36.4-.69.28-.11.32-.41.2-.63.28-.11.04-.3.14-.29.17.09.28-.09.67.35.8.02.01.02.11.03.16l.01.02c-.01.13-.08.29-.03.38.16.25.34.49.55.69.23.21.64.74.58.87-.09.23-.06.4.21.42.22.01.55.06.55-.28-.01-.43.22-.65.53-.84.09-.06.22-.07.33-.1.02.09.07.18.07.27-.01.89.91 1.16 1.37.85.48-.31.83-.52 1.33-.14.03.02.18-.06.18-.08-.06-.36.19-.34.42-.4.12-.03.28-.2.29-.31-.01-.25-.75-.88-1.03-.84zm3.82 8.52c0 .01 0 .03.01.04.01 0 .01.01.02.01 0-.01-.01-.01-.01-.02-.01 0-.01-.01-.02-.03zm-.13-.37c.04.12.08.25.13.37v.01c-.02-.14-.05-.27-.07-.41-.02 0-.06.02-.06.03zm.36 2.31s.01 0 .02-.01h-.04c.01 0 .02.01.02.01zm-.18-.24c.02.03.04.05.06.08l-.03-.11-.03.03zm.08.11c-.01-.01-.01-.02-.02-.02.01 0 .01.01.02.02.02.04.04.08.07.12h.02l-.01-.01c-.03-.04-.05-.08-.08-.11z" fill="none"/><path class="st1" d="M106.82 42.88c-.03-.04-.09-.05-.13-.08-.01.06-.03.11-.03.17.01.11.04.21.07.32l-.21-.27-.27-.39c-.03-.04-.06-.09-.09-.13-.03.04-.08.09-.09.13-.02.16-.04.25-.18.06-.04-.05-.12-.07-.18-.1-.01.06-.03.13-.03.19 0 .07.01.13.02.2-.05-.05-.11-.1-.15-.16-.18-.25-.13.04-.18.06-.16.06-.07.56-.43.27-.02-.01-.08.02-.11.04.03.08.04.17.09.23.14.16.31.31.46.47.05.05.08.12.11.18-.06-.04-.13-.08-.19-.12-.18-.11-.35-.31-.53-.31-.13 0-.25.18-.37-.04-.01-.02-.07-.01-.1-.01.01.03.01.06.03.08.06.07.13.13.17.2.04.06.05.13.07.19-.05-.04-.1-.09-.16-.12s-.13-.04-.19-.06c0 .07-.02.14.01.2.03.08.09.15.14.22.01.02.02.05.03.08-.02 0-.05.01-.06 0-.13-.12-.25-.25-.37-.38.23-.16-.06-.55.23-.63.41-.11.33-.36.27-.63-.02-.15-.08-.3-.1-.46v-.01c-.01-.06 0-.12.01-.18v-.06c.02-.08.06-.16.14-.24.05-.05.07-.3-.18-.18-.03.02-.13-.02-.14-.05-.02-.07 0-.15 0-.22.04.03.07.1.1.1.08-.01.2-.04.21-.08.07-.28.29-.5.22-.87-.08-.42.05-.88.07-1.32 0-.12.16-.36-.17-.34.16-.18.13-.32-.09-.41-.19-.08-.38-.17-.58-.2-.1-.02-.22.09-.33.13-.29.15-.58.3-.88.46-.02.01-.04.04-.07.06.04.01.08.03.12.04.1.03.19.06.29.08-.08.05-.15.11-.23.16-.03.02-.06.05-.09.08.04.02.07.05.11.06.09.02.18.03.28.04-.09.05-.17.1-.26.14-.15.06-.3.11-.46.17-.03.01-.06.04-.09.06.03.03.06.06.1.08.04.02.09.01.13.02l.27.09-.24.12c-.03.02-.08.06-.07.07.03.06.08.11.12.16-.08-.01-.17-.02-.25-.01-.1.01-.2.04-.31.07.09.03.19.05.28.08.08.03.16.07.24.1-.08.02-.16.03-.24.05-.07.01-.13.03-.2.05.03.03.05.06.08.09.06.04.12.08.19.12-.08-.01-.16-.01-.25-.02-.1-.01-.21-.02-.31-.02-.05 0-.09.06-.13.1.04.01.08.02.12.04l.24.12c-.08.02-.16.04-.24.07l-.21.09c.08.02.17.03.24.06.05.02.1.07.14.11-.04.03-.08.08-.13.09-.07.01-.15-.01-.22 0-.06.01-.13.04-.19.06.05.02.1.05.16.07.06.03.12.05.18.08-.06.02-.12.05-.18.07-.22.05-.21.05-.08.25.01.01-.02.08-.04.09-.19.08-.39.14-.58.22-.06.02-.12.07-.18.1.07.02.15.05.21.04.09-.02.17-.09.26-.11.11-.02.23-.02.34-.02-.08.05-.15.11-.23.15-.14.07-.29.12-.44.18-.05.02-.11.03-.16.04.05.03.11.08.17.1.07.03.14.04.21.06-.07.03-.14.07-.21.1-.13.06-.27.13-.4.19-.07.03-.15.06-.22.08l.24.09.18.06c-.06.03-.13.05-.18.09-.04.03-.07.08-.1.12.19.12.12.14-.05.11-.09-.01-.18-.04-.26-.05-.06-.01-.12.01-.17.02.05.04.09.11.15.12.24.04.31.17.17.36-.06.07-.21.07-.32.11-.04.01-.08.04-.11.07-.01.01.03.07.05.09.07.04.15.08.22.11-.1 0-.2.01-.31 0-.09-.01-.17-.06-.26-.06-.06 0-.13.04-.19.07l.18.06c.07.03.13.06.2.09-.08.03-.15.09-.23.1-.07.01-.14-.05-.21-.06-.15-.01-.31 0-.46 0 .12.02.23.04.35.07.01 0 .03.01.04.02.13.07.26.15.39.22-.13-.02-.26-.04-.39-.04-.09 0-.17.01-.26.02.07.04.15.08.21.13.06.04.1.1.16.15-.07.01-.14.02-.2.04l-.17.03c.05.03.11.07.16.1.06.04.12.08.18.13-.07 0-.14.01-.21 0l-.48-.06c.12.05.24.08.35.15.06.03.09.11.13.17l-.2-.03c-.07-.01-.15-.01-.22-.01-.03 0-.06.02-.08.02.02.03.03.07.06.09.06.04.13.08.19.12-.08.02-.17.03-.25.06-.05.02-.1.05-.16.08.06.03.12.08.18.08.22-.01.44-.03.66-.04.04 0 .08.02.12.03-.02.03-.04.07-.06.08-.23.05-.47.09-.7.14-.06.01-.11.05-.16.07.05.04.09.08.15.11s.12.05.18.07c-.06.03-.11.07-.17.1-.02.01-.06-.01-.09 0-.09.04-.17.08-.25.12.08.02.17.03.25.05.04.01.09.01.13.02-.02.03-.04.08-.07.09-.24.09-.49.16-.74.24-.12.04-.23.07-.35.1.11.02.23.02.33.06.06.02.12.08.13.14.01.03-.07.11-.12.12-.07.02-.15-.01-.22 0s-.13.04-.19.06c.06.04.11.1.18.11.21.03.43.03.55.25.02.04.07.08.1.11-.06 0-.13.01-.19-.01-.05-.02-.1-.08-.15-.09-.17-.02-.35-.03-.52-.05.13.05.26.1.39.16.05.03.09.08.14.12-.05.02-.1.04-.15.05-.15.03-.3.05-.45.08.03.02.07.04.1.06 3.65-1.02 6.94-2.87 9.69-5.33-.14-.12-.23-.25-.34-.36zm-9.42-.97c.04-.06.1-.11.12-.18.07-.18.1-.37.19-.54.08-.15.2-.28.3-.42 0-.01.08.05.12.07-.09.14-.19.27-.28.42-.06.1-.1.21-.15.31.07-.06.14-.11.22-.17l.27-.21.09-.09c0 .04.02.09.01.13-.06.2-.13.4-.18.6-.02.07-.02.14-.03.21.04-.05.08-.11.14-.14.12-.06.29-.01.34-.19.01.05.04.1.03.16 0 .08-.03.16-.04.25.05-.08.11-.16.15-.25.04-.09.07-.2.11-.29.03-.06.07-.12.11-.18 0 .07.01.14 0 .22-.01.06-.05.11-.05.17 0 .05.02.11.03.17.03-.05.07-.1.09-.15.07-.19.14-.39.21-.59.01-.04.04-.07.07-.1.01.03.04.06.03.08-.14.25.23.56-.1.79-.04.03-.02.16-.02.24.07-.06.16-.1.19-.18.16-.4.31-.81.46-1.21.02-.04.02-.09.03-.13.02.01.06.03.06.04-.02.47.1.11.23.06.25-.11.42-.31.4-.57 0-.05.1-.11.15-.17.21-.19.45-.36.63-.58.09-.11.06-.3.12-.44.18-.44.4-.87.54-1.32.12-.38.17-.78.24-1.17.08-.46.29-.93-.16-1.32-.03-.03.07-.04.12-.24.06-.25-.03-.54-.06-.81h-.04c-.19.02-.18.02-.2-.23-.03-.43-.07-.86-.12-1.28-.01-.06-.11-.1-.16-.15-.02.07-.05.15-.07.22-.04.08-.11.15-.13.23-.23.75-.62 1.4-1.11 2-.44.54-.9 1.08-1.28 1.66-.67 1.01-1.49 1.86-2.54 2.47.05-.32.1-.64.14-.96.02-.1.03-.2.05-.3.03.11.06.23.08.34.01.04-.02.09-.02.13v.24c.04-.08.09-.15.13-.23.02-.04.02-.09.03-.13.07-.29.08-.27.41-.32.07-.01.1-.25.19-.33.06-.05.2.01.3.02-.15-.45.45-.66.35-1.1-.01-.03.04-.12.07-.12.41-.02.15-.27.17-.43.03-.23.14-.46.21-.69.01-.02.04-.06.05-.06.04.01.1.02.11.05.12.2.24.4.35.61.03.05.04.1.06.15l.06-.06c.24-.43-.2-1.29-.73-1.42.2-.31.36-.09.48.06.21.24.38.26.56-.01.05-.08.08-.16.13-.24.04-.08.12-.16.14-.25.02-.1.01-.22 0-.32-.03-.23-.03-.48-.14-.67-.09-.16-.32-.25-.49-.35-.11-.07-.26-.08-.37-.15-.11-.07-.2-.17-.28-.26-.14-.17-.3-.33-.39-.53-.09-.2-.11-.44-.16-.66h.06c.15.17.32.28.57.17.09-.04.2-.07.3-.1-.03-.08-.05-.15-.08-.23-.12-.3-.24-.59-.35-.89-.02-.05.04-.14.07-.21.02.07.03.13.05.2.01.06.03.11.04.17.02-.06.02-.12.05-.17.46-.77.38-1.53-.05-2.28-.1-.17-.12-.37-.19-.56-.08-.22-.23-.43-.25-.65-.03-.37-.17-.71-.18-1.11-.01-.58-.13-1.25-.68-1.67-.02-.02-.04-.05-.04-.08-.06-.67-.15-1.33-.17-2-.01-.31.1-.63.21-.92.18-.49-.24-.9-.13-1.38.02-.08.18-.34-.14-.33.02-.09.03-.18.06-.26.02-.06.1-.12.09-.15-.19-.53-.39-1.05-.59-1.58-.02-.05-.05-.12-.04-.16.16-.35.05-.67-.05-1.01-.06-.18-.09-.38-.06-.57.08-.51-.15-.98-.37-1.35-.43-.74-1.02-1.38-1.55-2.07-.01-.01-.01-.03-.03-.04-.46-.16-.71-.52-.91-.94-.01-.02-.14-.02-.14-.02-.04.35-.12-.02-.18.01-.04-.1-.08-.21-.13-.31-.09.04-.18.07-.26.13-.16.11-.35-.1-.52.12-.41.55-.91.65-1.63.37h-.09c-.06.01-.12.03-.17.03-.09.01-.17.01-.26.01.05.07.17.18.15.22-.07.14.3.25.02.39-.02.01-.02.12 0 .13.05.03.12.03.17.04-.08.03-.21.11-.24.08-.26-.22-.43.03-.55.14-.4.38-.9.28-1.37.33-.4.04-.78.11-1.06.43-.03.03-.09.07-.11.05-.06-.04-.14-.09-.16-.14-.02-.08.04-.17.04-.26 0-.06-.05-.13-.08-.19-.04.04-.08.07-.11.12-.04.05-.07.1-.1.15-.01-.06-.02-.12-.02-.17-.06-.41-.12-.81-.17-1.22-.01-.11 0-.23 0-.35-.08.1-.17.2-.23.32-.05.1-.05.22-.08.34-.01.05-.03.1-.05.14-.03-.05-.08-.09-.1-.14-.02-.07 0-.17-.04-.21-.19-.17-.37-.39-.6-.47-.16-.06-.4.05-.58.14-.4.2-.82.4-1.16.67-.52.41-.72 1.06-1.09 1.59-.32.47.01 1.19-.62 1.53-.03.02 0 .16.01.25.01.12.03.24.02.35-.03.32.06.48.38.58.03.01.06.09.05.11-.04.06-.12.1-.15.17-.02.04.02.1.04.16.05-.05.09-.1.14-.15 0 .04.02.09.01.12-.06.11-.14.22-.19.33-.01.03.02.08.03.12.06-.02.12-.04.19-.06-.06.05-.12.11-.19.14-.26.13-.37.33-.19.56.11.14.43.14.19.42.46.26.11.73.27 1.09.07.16.02.18.17.08.08-.06.2-.06.3-.09-.03.11-.05.23-.09.34-.02.05-.07.09-.11.14-.04.05-.09.1-.14.16.07-.02.16-.02.21-.07.08-.08.13-.19.2-.28.03-.04.07-.07.11-.11-.01.05-.01.1-.03.15-.03.1-.07.19-.1.28l-.09.37c.1-.04.21-.08.31-.12.05-.02.1-.05.15-.07-.01.06-.03.12-.04.19-.01.07 0 .15-.01.22-.01.06-.03.11-.04.16.04-.03.09-.07.14-.1.07-.04.15-.07.23-.11 0 .07.03.17.01.19-.11.07-.26.13-.06.25.08.04.2-.01.31-.01.15 0 .3-.01.46-.01-.03.26.42.19.34.49.03 0 .06 0 .08-.01.19-.12.31-.07.35.13.01.07.05.16.11.19.39.19.5.52.48.92-.01.17-.1.4-.02.51.31.49.11.92-.03 1.39-.21.7-.36 1.42-.58 2.12-.01.02-.01.05-.02.07-.11.35-.25.68-.39 1.02-.12.28-.24.57-.34.85-.02.06-.05.12-.07.17-.14.32-.31.64-.02 1.04.04.05.07.07.11.11l.03.03c.11.11.22.19.41.19.13 0 .26.09.4.13.06.02.12-.01.18 0s.11.07.17.08c.06.01.33-.07.55-.12.04-.14.08-.27.13-.41.02-.06.04-.11.06-.14.02-.03.04-.05.07-.06.13-.05.26.24.39.21.01 0 .02 0 .03-.01.03-.02.09.01.13-.01.09-.03.16-.03.24-.05-.07 0-.14-.02-.22 0 .08-.02.15 0 .22 0h.06c.24-.02.45.05.65.17.01 0 .01.01.02.01.14.09.27.2.39.33.23.25.38.08.48-.05.09-.1.08-.3.12-.45.02-.06.06-.12.09-.17.03.05.07.1.08.15.04.12.05.23.05.33v.07c-.01.09-.03.18-.07.26 0 .01-.01.01-.01.02-.04.08-.09.15-.15.22-.02.02-.03.04-.05.05-.06.07-.13.13-.2.2.16-.03.35-.1.48-.05.16.06.28.25.41.38-.11.07-.21.19-.32.2-.18.02-.38-.04-.57-.04-.17 0-.48 0-.53.03 0-.03.02-.05.03-.08-.36-.14-.63.11-.94.17-.45.09-.34.35-.36.59-.01.1.06.2.09.3.01.06.01.13.02.19-.05-.05-.12-.09-.15-.16-.08-.18-.13-.37-.23-.53-.07-.11-.21-.16-.32-.24-.01.05-.03.1-.05.14-.02.07-.05.14-.04.21.01.22.79.97 1.01.98.12.01.24 0 .36-.01h.13c-.15-.53.11-.13.23-.11.01 0 .03-.01.04-.02.07-.19.14-.38.19-.57h.01c.38.26.78-.01 1.16.06.3-.55.59-.06.88.02.14.04.27.15.41.16.11.01.33-.13.32-.14-.08-.26.08-.61-.27-.78-.17-.08-.33-.2-.49-.3-.04-.03-.07-.08-.11-.13.06-.01.13-.04.19-.01.74.32 1.3.87 1.83 1.45.02.03.02.08.02.12-.05 0-.11.01-.16-.01-.13-.05-.25-.11-.38-.16.1.11.19.23.29.33.07.08.16.14.23.22.05.05.08.12.12.17-.07.01-.13.03-.2.04-.02 0-.05.01-.07.01.01.02.03.04.04.06-.1.01-.21.01-.3.04l-.06.03c-.01.22.01.44.03.66 0 .03.08.06.12.09-.06 0-.12.02-.17.01-.28-.02-.52-.12-.75-.26-.01.03-.01.06-.02.1-.04-.04-.09-.07-.12-.11-.1-.11-.19-.19-.29-.25-.06-.04-.13-.06-.19-.09-.03-.01-.06-.03-.1-.04-.08-.02-.17-.02-.25-.02H90c-.1.01-.2.04-.31.08-.01.02-.03.03-.05.05-.15.27-.36.45-.57.64-.17-.06-.34-.15-.5-.25v-.01c-.03-.21-.19-.37-.39-.46-.12 0-.23.01-.35.01-.64-.01-1.24.56-1.92.16-.04-.02-.14.03-.21.07-.2.12-.41.23-.6.37-.02.01-.02.05-.02.09 0 .04.01.08.02.1v.02c.22.13.44.33.67.35.39.02.78.02 1.17.01-.36-.01-.71-.04-1.05-.1.34.07.69.09 1.05.1.32 0 .63-.01.94-.01.13 0 .37.12.37.16-.02.17-.06.33-.34.34-.46.03-.93.15-1.38.26-.34.08-.68.21-1.02.31-.03.01-.05.02-.08.03-.03.03-.05.06-.08.1-.06.03-.12.07-.18.1l-.01.02c.01.02 0 .04-.02.05-.03.03-.05.06-.08.09h-.01c-.03.02-.05.05-.08.07l-.01.02c0 .03.01.06.01.09.23.16.13.37.07.56-.03.1-.05.2-.05.3-.01.1 0 .2.01.29.08.2.16.39.23.59-.06-.2-.15-.39-.23-.59.03.24.11.47.26.66.08.11.18.21.29.29.03.02.02.11.01.19-.01.04-.01.08-.01.11.02-.01.04-.03.07-.04.1-.06.2-.14.27-.12.36.1.36.12.55-.06.03-.03.07-.05.1-.07-.01.05-.02.1-.02.15-.01.16-.04.33-.03.49 0 .04.1.1.16.12.04.01.14-.02.14-.04.01-.06 0-.14-.04-.19-.27-.32.04-.49.19-.69.02-.02.08-.01.12-.01 0 .03 0 .06-.01.08-.27.41.17.29.29.34.13.05.22.05.36.15.27.21.58.5 1 .44.07-.01.15.06.23.1.24.41.68-.1.95.22.01.01.08-.02.12-.03.01 0 .03-.02.03-.03.25-.5.61-.32.97-.17.09-.05.18-.11.26-.16l-.01-.01h.02c.09-.06.17-.12.26-.18 0 .06 0 .12-.01.18h.01l-.01.01c.12-.06.25-.12.37-.18.03-.06.05-.12.08-.18.06 0 .12-.01.18-.01l-.01.01c.03-.03.07-.05.1-.08.04 0 .09-.01.13-.01.02-.03.03-.05.05-.08.03-.02.05-.04.08-.06.06-.01.12-.02.19-.02.5-.3.88-.81 1.53-.83.04 0 .09-.1.12-.17.17-.33.34-.66.5-.99.05-.05.1-.1.15-.16-.01.01-.02.01-.04.02-.01 0-.02.01-.03.01.03-.08.06-.15.09-.23H95l.21-.27c.05-.41.38-.57.69-.64.31-.07.5-.21.63-.48-.01.17.24.36-.07.5-.05.02-.01.25-.01.38 0 .07.01.14.01.2-.05-.04-.09-.09-.14-.13-.1-.07-.23-.2-.29-.17-.16.06-.29.19-.42.31-.03.03 0 .13 0 .2l.24-.24.09-.09c.01.03.03.06.02.07-.21.28.25.6-.06.88-.08.07-.1.2-.14.31-.05-.1-.09-.2-.15-.28-.02-.03-.13-.05-.14-.03-.22.38-.43.76-.64 1.14-.04.08-.07.17-.13.23-.02.03-.14.02-.15 0-.04-.08-.05-.17-.08-.25-.06.11-.15.22-.18.33-.01.04.1.11.14.18.11.2.2.41.3.61.07.13.17.24.25.37.03-.03.08-.05.09-.08.1-.3.1-.3.39-.33.02 0 .03-.08.06-.1.03-.02.07-.02.11-.01.03 0 .07.04.07.04.09-.1.32-.07.38.05.06.12.12.22.19.34-.06.08-.1.21-.18.25-.7.3-.84.98-1.07 1.58-.4 1.07-.8 2.12-1.56 3-.1.11-.2.22-.29.34-.03.04-.02.11-.03.16.05 0 .11 0 .16-.01.58-.07.76-.63 1.02-.99.38-.51.61-1.15.8-1.76.29-.92.72-1.72 1.49-2.33.14-.11.24-.12.39-.03 0 0 .02-.01.02-.02.03-.55.72-.49.87-.95.02-.08.42-.15.55-.13.02 0 .06-.03.06-.05-.03-.35.23-.51.46-.7.06-.05.09-.15.13-.22-.01.09.01.2-.03.28-.06.13-.15.24-.22.36-.08.14-.17.27-.22.41-.06.17-.01.47-.11.52-.26.14-.26.36-.33.57-.07.23-.13.46-.2.68-.01.04-.04.07-.07.11-.02-.05-.05-.09-.07-.14-.1.06-.22.11-.31.19-.07.06-.11.16-.17.24.03-.01.07-.01.1-.03.05-.02.1-.05.14-.08-.01.06-.01.13-.03.19-.03.11-.07.22-.1.34-.1.42-.1.42-.41.14-.03-.03-.08-.02-.12-.03-.08.29-.16.58-.23.87-.03.14-.05.28-.07.42.14-.12.28-.23.4-.37.06-.07.07-.19.12-.28.02-.03.1-.02.15-.02.1.12.1.19.09.25zm-2.57-18.26c-.23.07-.48.05-.42.4 0 .02-.15.1-.18.08-.5-.38-.85-.17-1.33.14-.46.3-1.38.04-1.37-.85 0-.09-.04-.18-.07-.27-.11.03-.23.04-.33.1-.31.19-.54.42-.53.84 0 .34-.32.3-.55.28-.27-.01-.3-.19-.21-.42.05-.13-.36-.67-.58-.87-.21-.2-.4-.44-.55-.69-.05-.09.02-.25.03-.38l-.01-.02c-.01-.06-.01-.16-.03-.16-.43-.13-.26-.52-.35-.8-.01-.02.19-.12.29-.17.21-.08.52.04.63-.28.33.12.67-.3.69-.28.41.36.8-.07 1.19-.01.11.02.11.01.06.15-.01.04.01.12.04.14.06.05.16.11.22.09.19-.06.38-.16.57-.25.02-.01.04-.04.05-.06.06-.3.05-.29.34-.28.26.01.54.06.78-.02.64-.2.98.34 1.45.55.04.02.06.18.03.21-.08.06-.24.15-.29.12-.42-.31-.91-.16-1.36-.17-.56-.02-1.13.1-1.69.18-.33.05-.67.1-.96.25-.15.08-.24.36-.26.56-.01.07.24.21.4.25.11.03.17-.25.39-.08.13.1.4.06.59.04.27-.04.39 0 .62.03.28.04.58-.01.88-.04.13-.01.15 0 .26.11.2.2.43.49.82.43.27-.05 1.02.58 1 .85.02.11-.14.27-.26.3zm2.33 10.04c.02-.14.07-.27.11-.41.21.07.47.08.6.22.23.24.37.56.54.85-.43-.09-.49-.04-.45.31 0 .04-.07.12-.09.11-.15-.03-.3-.08-.12.15.02.03.01.08.01.12-.05 0-.14.02-.16-.01-.12-.2-.25-.4-.35-.61-.06-.12-.07-.25-.1-.38 0-.12-.01-.24.01-.35zm6.51-19.85c-.01.04-.03.08-.04.12.01 0 .02 0 .03.01.01-.04.01-.08.01-.13zM93.09 47.38c-.55-.24-1.11-.24-1.7-.11-.83.19-1.66.32-2.5.46-.23.04-.46-.02-.7-.01-.14 0-.22.1-.39-.07-.14-.14-.57-.04-.85.03-.17.04-.29.23-.44.36-.05.04-.11.08-.16.12.06.01.12.02.17.04.08.04.15.08.23.13-.06.06-.12.13-.19.18-.21.12-.56.19-.61.35-.02.07-.05.12-.09.16 1.14.24 2.32.36 3.52.43.43-.13.38-.57.55-.87l-.18-.09c-.08-.04-.19-.07-.23-.14-.02-.04.05-.18.11-.21.37-.15.74-.27 1.11-.4v.1h1.34c.07 0 .13.02.2.03-.07.05-.13.1-.2.14-.09.04-.18.06-.27.09.1.01.2.03.3.04.04.01.08.02.13.02-.03.03-.06.08-.1.08-.31.03-.01.26-.11.35l.26.03c.04 0 .08 0 .13.01-.03.02-.06.05-.09.07-.29.2-.54.41-.66.76-.01.02-.03.03-.06.05.43-.01.87-.03 1.3-.07.04-.05.08-.11.1-.17.15-.34.24-.71.38-1.06.12-.35.02-.69-.3-.83zm9.78-23.49c-.14.17-.31.29-.59.26-.25-.02-.41.25-.31.49.09.2.2.39.29.59.21.44.3 1.15-.15 1.43-.45.29-.49.79-.71 1.19-.06.11-.17.23-.17.34.03.48.1.95.17 1.43.01.05.07.1.12.14.27.22.31-.06.47-.18.64-.53.86-1.25 1.03-2.01.03-.15-.08-.6.37-.29.03.02.19-.08.23-.15.11-.16.19-.34.27-.52.31-.72.19-1.48.2-2.23 0-.1.04-.2.08-.29.04-.08.11-.14.17-.2-.05-.04-.11-.11-.15-.1-.09.02-.18.07-.24.13-.12.13-.22.29-.34.42-.01.01-.14-.02-.15-.06-.07-.14-.11-.3-.16-.45.05-.07.1-.13.15-.2v-.03l-.16-.03.16.03v-.15c0-.04-.01-.07-.01-.11-.05.04-.1.08-.14.13l-.01.01h-.01c-.06.03-.12.05-.17.08l-.09.12v.02c-.07.07-.11.14-.15.19zM96.1 11.7c.03.01.06.07.06.1-.04.35.28.47.47.62.17.13.24.23.19.42-.03.1-.04.21-.08.3-.12.28.04.41.26.32.21-.08.25 0 .23.14-.03.28-.31.57.08.8.01.01-.04.11-.04.16 0 .25-.01.49.01.74.01.16.06.22.2.05.09-.11.24-.21.37-.22.24-.02.45.34.38.61-.02.1-.08.26-.07.26.45.23.04.43-.01.65-.02.07 0 .2.05.23.06.04.21.04.24-.01.23-.34.5-.67.65-1.04.14-.37.15-.79.22-1.18-.2-.4.17-.98-.5-1.15-.01-.32-.16-.38-.43-.23-.02-.05-.05-.1-.06-.15-.02-.09-.02-.18-.04-.26-.02.08-.03.16-.05.23-.01.03-.06.06-.08.06-.45-.03-.45-.64-.89-.69-.04 0-.09-.08-.1-.13a.55.55 0 0 1 .02-.22c.05-.27.13-.65-.25-.62-.28.03-.1-.81-.51-.23 0 0-.06-.02-.06-.03.03-.35-.15-.51-.47-.55a.731.731 0 0 1-.19-.07c-.01.06-.03.12-.03.18-.05.4-.05.77.43.91zm3.51 6.33c0 .01.08.03.12.02.31-.08.47.23.54.36.11.2.07.31.24.05.12-.19.23-.24.35.02.04.09.25.2.27.18.2-.18.2-.54.59-.6.06-.01.04-.53.05-.81 0-.02-.09-.07-.09-.06-.27.3-.06-.09-.12-.09.01-.15.04-.3.04-.44 0-.08-.04-.16-.07-.23-.06.03-.11.06-.17.09-.13.06-.25.11-.38.16.01-.11.03-.22.03-.33 0-.12 0-.24-.02-.36 0-.03-.08-.07-.11-.06-.16.04-.15.05-.15-.2-.12-.37-.27-.85-.43-1.33-.34.07-.28-.19-.32-.38-.01-.03-.06-.04-.1-.06-.08.14-.2.27-.22.42-.13.75-.2 1.5-.36 2.24-.11.55.23.94.31 1.41zm-11.52-7.67l.64-.06c.04 0 .09-.01.13-.01.22-.01.44.07.65.05.3-.03.6-.18.89-.15.43.04.75-.08 1.02-.4v-.13c.09-.07.21-.12.27-.21.13-.18.28-.37.31-.58.04-.24 0-.51-.05-.75-.02-.12-.13-.21-.2-.32-.1.09-.28.17-.29.27-.09.84-.68 1.11-1.36 1.39-.44.18-.71-.06-1.03-.2-.04-.02-.05-.15-.04-.23 0-.02.1-.07.13-.06.55.32.23-.16.18-.22-.12-.14-.3-.24-.46-.34-.05-.04-.13-.04-.19-.06.12-.27-.12-.12-.14-.1-.11.07-.23.14-.31.24-.05.07-.07.15-.1.23-.01.05-.03.1-.04.15.02 0 .04.01.06.01.06 0 .12 0 .16.02.04.02.09.09.08.13-.02.1-.07.19-.11.28l-.24.51c.2-.04.4-.08.6-.11.04-.01.08 0 .12 0-.03.04-.06.11-.1.11-.32.04-.59.16-.75.47-.01.03-.06.04-.08.06.04.01.08.05.12.04.03-.02.08-.02.13-.03z"/><path class="st1" d="M91.58 39.84c-.08-.01-.2-.01-.25.04-.26.25-.3.04-.36-.15-.14.1-.27.25-.43.29-.39.1-.7.3-.94.62-.11.14-.14.24.11.24.41-.01.81-.03 1.14-.33.08-.07.26-.05.4-.05s.3.09.42.04c.42-.16.94-.07 1.24-.51.02-.03.1 0 .13-.03.17-.13.38-.22.51-.4.03-.05.03-.11.04-.17.04.05.09.1.12.16.13.27.11-.01.13-.04.27-.37.31-.78.23-1.21-.01-.04-.02-.08-.02-.12-.04.02-.08.03-.11.06-.11.12-.3.3-.31.36-.08.28-.22.43-.49.54-.21.09-.29.1-.38-.14-.11.3-.19.64-.66.46-.03-.01-.15.14-.19.23-.06.11-.08.24-.14.36-.02.04-.09.04-.14.07 0-.04.01-.08 0-.12-.02-.09-.03-.2-.05-.2zm9.81-20.39c-.07.09-.15.17-.24.24-.18.15-.37.27-.54.43-.04.04-.01.16-.01.25.07 0 .14.01.21 0 .07-.01.13-.03.19-.04-.05.06-.1.11-.13.18-.07.11-.13.22-.19.34.44 0 .5.58.99.61.59.04.92-.15.88-.75l-.06-.88c0-.03-.06-.08-.1-.08-.15-.02-.31-.03-.46-.05 0-.03.01-.06.01-.08 0-.03.01-.06.01-.08-.21-.46-.25-.46-.56-.09zM82.62 41.01v.01-.01zm5.12-29.37c.21-.2.41-.42.65-.58.07-.05.25.06.38.1-.04.09-.08.17-.12.26-.02.04-.06.07-.09.1.05 0 .11.01.16-.01.04-.01.08-.02.11-.03.18-.04.35-.09.53-.14.16-.04.32-.08.49-.13.03-.01.09-.02.1-.04.06-.45.44-.21.61-.31.13.01.21.04.27.02.09-.03.17-.09.26-.14-.08-.04-.16-.1-.24-.12-.08-.02-.17 0-.25.02-.34.08-.68.17-1.03.24-.22.04-.44.03-.66.05.2-.06.4-.11.6-.17.04-.01.08-.04.12-.06-.03-.02-.06-.05-.09-.06-.53-.16-1.17.05-1.58.47-.14.19-.24.4-.3.63.02-.04.05-.07.08-.1zM86.11 45.4h-.18c.11.12.22.25.34.35.03.03.12 0 .18 0 .03-.05.09-.12.08-.13-.14-.16-.3-.31-.45-.46-.08-.05-.16-.09-.24-.14-.03-.03-.07-.05-.1-.08l-.2-.26h.17c-.04-.06-.07-.12-.11-.19.23.11.54.16.48.54.18-.09.35-.17.53-.26h.09l.01.01c.02.03.05.06.07.08.04 0 .08 0 .12-.01.02-.05.04-.11.06-.16.01-.02.01-.03.02-.05v-.01c-.05-.16-.13-.22-.24-.18-.04.01-.08.03-.13.07-.4-.27-.77-.59-1.2-.81-.3-.15-.68-.27-1-.23-.25.03-.37.3-.47.64-.1.36-.33.87-.83 1.04-.04.01-.07.05-.1.08l.1.03c.18.02.37.07.54.04.27-.06.45.33.78.1.2-.13.3-.23.29-.45l.18-.18c0 .06.01.12.01.18.07 0 .14.01.21.01-.06-.06-.11-.13-.17-.19l.03-.02c.06.01.13.01.19.02v.01c-.01.06-.01.12-.02.18.08.04.17.07.25.11.06.03.13.06.19.09l.09.09c.02.01.05.03.07.04l.01.01c-.02-.03-.04-.05-.06-.08-.03-.03-.05-.07-.08-.1l-.11-.17-.09-.09.01.01-.01-.01.09.09.16.03c.03.03.06.05.1.08.15.1.25.22.34.33zm9.16-9.26c.06-.12.13-.24.19-.35l-.1.1h.01c-.03.08-.06.17-.1.25zm.02.34c.04-.03.08-.08.11-.11-.02-.01-.04-.03-.1-.08-.02.04-.06.09-.08.14.01.01.07.06.07.05zm11.3-17.85l.01.01.03-.01c-.02-.05-.03-.1-.05-.15v-.03s-.01 0-.01-.01c0-.03-.01-.05-.01-.08-.03 0-.07.01-.1.01-.05.02-.1.05-.15.07h.01-.01c.1.07.19.13.28.19zM95.1 36.31c.06-.05.11-.11.17-.16v-.01c-.06 0-.12 0-.18.01.01.05.01.1.01.16zm-8.16 5.04c0-.01.01-.01.01-.02s-.01-.02-.01-.02c.01.02 0 .03 0 .04zm19.22-22.69l-.01.04.01-.02zm.36.24c-.02-.05-.04-.09-.05-.14.01.05.03.1.04.16l.01-.02zm-.08-.21h-.03.03z"/><path class="st1" d="M85.84 44.77l.02.02c-.01-.01-.01-.02-.02-.02-.01-.01-.01-.02-.02-.02l.02.02zm5.74-22.5c-.18.08-.43.18-.65.31-.07.04-.08.18-.12.27.09.02.18.06.26.05.67-.1 1.34-.1 1.99.12.08.03.18.03.27.03.04 0 .08-.02.11-.03-.02-.03-.04-.07-.07-.1-.47-.49-1.1-.52-1.79-.65zm-2.6-15.61c.05.02.1.04.15.05.14.04.28.06.42.09-.11-.13-.21-.26-.33-.38-.02-.03-.09-.01-.13-.02-.11-.03-.22-.06-.32-.09.09-.04.17-.07.26-.11 0 0-.02-.04-.02-.07-.01-.06-.03-.12-.04-.18.08.01.17 0 .23.04.26.19.5.39.75.58.09.06.19.1.28.15-.04-.11-.08-.21-.13-.32-.09-.2-.2-.39-.29-.59.02-.01.05-.02.07-.02 0-.08.01-.21-.02-.23-.24-.11-.5-.28-.72-.25-.22.03-.41.28-.6.45-.12.11-.22.25-.32.37-.04.05-.09.09-.13.14h.02c.35.07.65.19.87.39zm-1.34 5.08c.07-.23.16-.44.3-.63-.14.14-.25.31-.33.49-.02.05 0 .1 0 .16.02-.01.02-.02.03-.02zm-.09 28.82c.1-.09.19-.2.31-.26.18-.09.37-.14.56-.2-.32.03-.64.06-.96.08l-.01.01c-.01 0-.01.01-.02.01-.04.03-.08.05-.13.08l-.08.08c.04.06.08.12.11.18h.05c.06.01.11.01.17.02zm-5.29-21.78c-.09.13-.18.27-.27.4.07.03.14.06.22.08v-.13c.06-.13.11-.25.17-.38-.04.01-.1 0-.12.03zm-4.84.61v.14l-.09.09c.12.12.24.23.37.35.02-.05.05-.1.07-.16.04-.26.04-.5-.35-.42zm-.44 3.46a.304.304 0 0 0-.07-.05c-.01.05-.01.09-.02.14-.05.04-.1.08-.15.11l.06.06.01.01c.07 0 .13.01.2.01.35-.04.14-.17.05-.29-.03.01-.06.01-.08.01zm11.49 17.52c.11.03.22.05.33.08.04-.06.09-.11.13-.17l-.46.09zm-4.5-4.49c.07-.03.15-.05.22-.08-.1-.09-.2-.19-.3-.28-.06-.14-.11-.28-.17-.43-.09 0-.18 0-.27-.01h-.01c.02.05.04.11.07.16.01.02.01.04.01.06-.01.01-.02.01-.04.01s-.03 0-.05-.01l-.09.03c.07.12.13.24.2.37.02 0 .05 0 .07-.01.06.03.12.06.18.1v-.01l-.15-.3c-.01-.05-.02-.1-.03-.14h.01l-.01-.01.26.2c.04.12.07.23.1.35zm-6.91-13.3c0-.06 0-.11.01-.17l-.06-.18c-.01.05-.02.1-.02.15 0 .06-.01.13-.01.19.03.01.05.01.08.01zm-.01-3.14c0-.01 0-.03.01-.04-.02 0-.04.01-.06.01.01.01.01.03.02.03 0 .01.02.01.03 0zm3.69-7.26v.02h.02zm8.07 28.54h.16l-.03-.06c.02-.03.03-.06.05-.09-.03.02-.05.04-.08.06-.03.03-.06.06-.1.09zM83.7 28.67c.07-.09.16-.23.13-.31-.12-.39.07-.65.29-.91.05-.06.11-.15.11-.22.01-.47.43-.84.31-1.34-.01-.02.05-.06.08-.1.41-.47.52-1.05.6-1.65.01-.04 0-.09 0-.13-.04.03-.09.05-.12.09-.08.1-.14.27-.25.31-.28.11-.59.26-.85.21-.23-.04-.42-.33-.6-.53-.12-.14-.22-.33-.42-.16-.14.12-.38.23-.2.5.03.05.01.13.01.19-.05-.02-.11-.04-.16-.08-.08-.06-.14-.13-.22-.2.01.12 0 .23.03.34.02.09.09.17.14.25.04.06.09.12.14.18.02.03.04.05.06.08.09.14.1.27-.21.41-.05.02-.08.08-.11.14-.08.14-.15.29-.22.43l-.15-.5c-.01-.03-.01-.06-.01-.09.01 0 .03-.01.04-.01l-.12-.39c-.01-.02-.05-.02-.07-.04-.09.26-.57.22-.46.64.03.1-.09.24-.11.37-.04.17-.13.47-.07.51.3.18.12.33.02.5-.07.13-.04.15.1.13.02 0 .06.02.07.04.04.19.07.38.1.57.03.22-.02.6.07.64.28.11.48.14.16.44-.01.01.02.08.05.11.22.19.59.25.52.67 0 0 .15.06.19.03.22-.16.44-.32.63-.51.18-.18.34-.4.5-.61zm1.34 2.61c-.08.03-.18.04-.24.09-.19.18-.38.36-.55.56-.05.06-.06.17-.09.25.11-.02.26-.01.32-.07.17-.19.24-.11.29.08.03.08.05.17.09.25.03.06.09.11.14.17.02-.06.05-.13.07-.19.03-.08.07-.16.1-.24.07.07.16.14.19.22.09.26.3.29.45.16.17-.15.36-.4.34-.59-.02-.23-.23-.45-.37-.67-.14.1-.27.21-.41.3-.08.05-.16.09-.25.13-.04-.07-.07-.14-.11-.21.02-.01.04-.01.06-.02 0-.07-.01-.15-.03-.22zm-3.3-9.24c-.32-.18-.16.16-.24.22.06.25.11.48.17.72.16-.07.33-.14.49-.22.03-.01.04-.04.07-.05.34-.16.69-.28 1-.47.28-.17.3-.55.06-.61-.26-.06-.54-.02-.81 0-.13.01-.28.01-.39.08-.12.08-.21.23-.31.34 0 0-.03-.01-.04-.01zm1.35 12.85h.25c0-.08 0-.16.01-.24 0-.01.01-.02.01-.03 0-.01-.01-.02-.01-.03v-.46l.01-.03c-.07-.12-.14-.25-.21-.37-.06.12-.13.24-.19.36h.01c-.16.3-.14.56.12.8zm-1.71-22.37c0-.02.01-.05.01-.07l-.01-.02h-.18.18l.01.02h.03c.07-.03.13-.05.2-.08v.01c.04-.1.41.01.16-.27-.02-.05-.03-.09-.05-.14 0-.02 0-.03.01-.05v-.18c0-.06 0-.11.01-.17v-.01c0-.04-.01-.09-.01-.13-.02-.03-.05-.06-.07-.09-.01.03-.01.05-.01.08h-.01v.01c-.02.03-.05.05-.08.08h-.02v.19h.01v.08h-.01c-.11.12-.23.24-.34.36h-.02l-.12-.18h-.01c-.01.06-.02.12-.04.18h-.01v.04c-.02.08-.05.15-.07.23h-.01v.01c-.03 0-.06-.01-.09-.01v.01c-.03-.02-.06-.03-.09-.05 0 .04.01.08.01.13h-.01v.02l-.08.08c.02 0 .05.01.07.01.01.06.02.12.03.19l-.02-.03c0 .03.01.06.01.09.05 0 .1 0 .15-.01h.01c.37.21.4-.09.46-.33zm5.03-6.23v.14c.03.06.06.11.08.17v.06c.03-.02.06-.05.08-.07h.02v-.02l.02-.02c-.01-.01-.01-.03-.02-.04v-.03l-.01.02c0-.06.01-.13.01-.19-.01-.04-.01-.08-.02-.12.02-.04.03-.07.05-.11-.03.01-.06 0-.08.02-.05.05-.09.11-.13.17v.02c.03.01.06.01.1.02-.04 0-.07-.01-.1-.02zm2.61 34.26h.01-.01c-.01 0-.02.01-.02.02l.02-.02zm.18-.17c.05.04.11.08.16.11-.02-.13-.05-.26-.07-.4-.03-.07-.07-.14-.1-.21-.06.13-.11.26-.17.39.05.05.11.08.18.11z"/><path class="st1" d="M82.62 41.01s0 .01 0 0c-.35-.06-.43-.33-.43-.63 0-.32.07-.64.06-.96-.01-.16-.11-.33-.21-.46-.11-.15-.32-.25-.15-.48v-.1c.02-.38-.13-.61-.48-.8-.22-.12-.36-.42-.52-.64a2.5 2.5 0 0 1-.23-.39.225.225 0 0 1 .02-.18c.07-.09.14-.38.07-.45-.01-.02-.13.07-.2.1-.03.01-.06-.01-.1-.02.21-.16-.48-.54.14-.59.02 0 .06-.05.06-.06-.1-.25-.19-.51-.32-.74-.06-.1-.23-.24-.18-.32.04-.07.14-.11.22-.13.05-.02.12.02.17.04-.02-.05-.03-.11-.07-.15-.25-.25-.38-.54-.41-.91-.04-.42 0-.78.22-1.15.19-.32.28-.67-.1-.97a.513.513 0 0 1-.16-.39c.05-.67-.15-1.35.11-2.01.1-.24.13-.51.17-.77.01-.09-.06-.19-.09-.28-.07.05-.14.09-.21.14-.06.04-.11.09-.16.13.01-.08-.02-.18.03-.23.45-.54-.14-.95-.17-1.42 0-.02-.02-.04-.04-.06-.09.09-.18.18-.26.28-.03.04-.01.11-.02.17-.04-.04-.1-.08-.11-.13-.07-.24-.13-.49-.2-.73-.02-.06-.06-.12-.09-.18-.02.07-.04.14-.05.21-.02.08 0 .19-.04.25-.03.04-.14.02-.21.03.04-.5-.39-.59-.69-.66-.44-.1-.54-.33-.49-.72.01-.05-.02-.11-.03-.16-.01.05-.01.11-.03.16-.03.07-.07.14-.1.21-.05-.07-.16-.15-.15-.2.1-.49-.1-.69-.58-.76-.2-.03-.36-.25-.55-.39-.27-.19-.45-.4-.35-.79.07-.24-.1-.6.39-.28.18.12.39-.02.48-.26.05-.15.14-.3.22-.44.01-.01.1.03.16.05.01-.1.01-.21.03-.31 0-.02.03-.03.04-.05.01.03.02.06.02.09.01.09.01.18.02.27.01.05.03.09.04.14.01-.04.01-.09.02-.13.01-.04 0-.09.01-.13.01-.07.03-.14.05-.21.03.06.06.13.08.19.01.05.01.1.02.16.01-.06 0-.14.03-.17.4-.34.25-.74.14-1.14-.01-.04-.06-.06-.08-.1-.02.03-.04.07-.06.1-.06.08-.12.16-.19.23-.05-.11-.12-.21-.14-.32-.02-.09.01-.2.02-.3-.08.08-.19.14-.24.23-.15.32-.28.65-.41.99-.06.15-.06.32-.12.47-.03.08-.14.12-.22.18-.04-.08-.1-.16-.1-.25-.03-.64.06-1.24.45-1.8.12-.17.22-.41.36-.61a.38.38 0 0 0 .03-.26c-.14-.55.06-1.06.24-1.54.15-.38.49-.72.81-.99.27-.23-.01-.41.04-.6.02-.06-.01-.12-.02-.19.04.04.07.09.11.13.03.03.07.04.1.07.01-.05.04-.1.04-.15 0-.07-.05-.15-.04-.22.03-.12.08-.24.12-.36.02.11.03.21.05.32.01.04.01.09.02.13l.03-.13c.02-.08.04-.17.07-.25.05.08.12.16.16.25.03.06.03.13.05.19v-.22c0-.32-.01-.64.01-.95.03-.31.12-.61.49-.7.06-.01.16-.09.16-.13-.03-.6.54-.73.83-1.07.05-.06.14-.09.16-.16.11-.38.35-.59.72-.74.3-.12.01-.23-.09-.32-.04-.04-.1-.06-.16-.09.05-.03.1-.05.15-.08.32-.2.64-.39.96-.6.05-.03.06-.12.09-.19-.07 0-.15-.01-.2.02-.07.04-.13.12-.19.19-.02.02-.05.03-.08.04 0-.04-.03-.1-.01-.12.15-.15.29-.32.46-.44.14-.1.33-.13.49-.19.06-.03.12-.07.18-.11-.07 0-.14 0-.21-.01.01-.07.02-.14.04-.2.06-.16.12-.31.17-.47.01-.04-.01-.1-.01-.15l.15.12c.04.05.08.1.12.16.02-.06.06-.13.06-.19.01-.41.12-.78.37-1.12.04-.05.07-.1.09-.15.04-.12.06-.24.09-.36.01.13 0 .26.02.39.01.05.05.1.08.14.02-.05.04-.1.06-.16.04-.1.07-.2.11-.29.02-.03.07-.05.1-.07.01.04.03.08.03.12l.03.25c.01.02.03.03.04.04.1-.08.2-.16.28-.26.13-.16.21-.36.35-.5.06-.07.27-.02.31-.08.32-.46.62-.95.93-1.42.04-.06.1-.1.15-.15 0 .05 0 .1.01.16 0 .04.01.08.02.12.03-.03.05-.07.08-.1l.02-.02c.03-.05.06-.1.09-.14.34-.39.79-.68 1.29-.57.47.11.9.03 1.28-.11.59-.22 1.11-.39 1.7-.05.13.07.34.1.48.05.42-.16.71.05 1.03.26.18.12.42.16.64.21.33.08.72.05.99.22.49.32.96.67 1.42 1.03-.01.01-.03.02-.04.03.23.19.46.38.69.56.15.11.32.18.48.28.08.05.16.12.24.17.21.14.42.29.63.42.02.01.12-.04.12-.05-.04-.42.14-.15.16-.07.12.57.81.46 1.03.89 1.12.06 1.62 1.07 2.45 1.58.41.25.66.75.99 1.13.39.46.8.92 1.18 1.39.19.24.35.5.54.74.06.08.19.11.29.16v.01c.13.11.27.21.4.33.06.05.1.13.12.21.02.1 0 .2 0 .31.07-.01.19-.03.19-.03.04.21.08.43.11.64.01.09.03.17.05.26.05-.07.09-.15.15-.21.03-.03.07-.05.11-.07.02.05.05.1.05.15 0 .06-.01.12-.02.18-.1.32-.06.29.12.53.14.19.15.47.22.71.02.08.05.16.08.24.06-.06.12-.12.18-.19.02-.02.03-.05.05-.07.06-.1.12-.2.18-.29-.02.11-.04.23-.07.34-.07.3.01.49.32.63.37.17.62.47.65.9 0 .03.01.05.01.08 0 0 .01 0 .01.01v.03c.02.05.03.1.05.15.48.45.51 1.06.6 1.66.13.84-.11 1.53-.62 2.19-.13.17-.16.42-.24.64-.01.03-.04.05-.06.07-.07-.1-.14-.21-.21-.31-.01.2-.06.41-.03.61.04.32.15.63.2.94.01.1.08.37-.21.23-.03.14-.06.28-.08.43-.02.14 0 .28-.03.42-.02.13-.08.25-.13.38 0-.11.01-.23 0-.34-.01-.06-.07-.16-.1-.15-.08.01-.19.04-.22.1-.07.15-.11.32-.15.49-.03.14-.04.3-.08.44-.03.13-.1.25-.15.37-.06-.1-.11-.2-.17-.3-.02-.03-.07-.05-.11-.07-.01.05-.03.11-.02.16.02.21.09.42.06.61s-.17.36-.25.55c-.04.1-.03.1-.22.12-.02 0-.05.05-.06.08-.16.4-.3.81-.5 1.19-.12.23-.34.42-.52.62 0 .01-.05-.01-.06-.02-.03-.46-.19.04-.28-.04-.33.45-.87.55-1.33.8-.06.03-.12.16-.1.21.11.26.24.5.36.75.02.04 0 .11 0 .16-.03-.04-.06-.1-.1-.12-.07-.03-.22-.07-.22-.05-.1.2-.25.4-.26.61 0 .23.13.46.21.69.02-.07.05-.15.07-.22 0-.22-.01-.45-.01-.67 0-.04.05-.08.08-.11.02.04.06.08.06.11-.1.44.2.4.49.44 1.01.15 1.71.76 2.29 1.57 1.15 1.61 1.78 3.44 2.32 5.31.04.13.11.23.16.34 3.44-3.85 5.55-8.91 5.55-14.48 0-12.01-9.74-21.75-21.75-21.75s-21.75 9.74-21.75 21.75c0 7.97 4.3 14.92 10.69 18.71.94-.81 1.9-1.6 2.9-2.34.28-.24.22-.31-.04-.41z"/><circle cx="90.82" cy="25.02" r="24.71" fill="none" stroke="#fff" stroke-width=".62" stroke-miterlimit="10"/><path class="st1" d="M18.3 59.72l.09 1.08-1.71.37V69h5.76l.85-2.57 1.32.12-.23 3.93H12.86l-.09-1.08 1.74-.37v-7.86l-1.74-.37.09-1.08h5.44zm17.25 10.75l-.42-.97c-.93.86-2.29 1.32-3.79 1.32-3 0-4.46-1.74-4.46-4.12v-3.79l-1.25-.18.09-1.08h4.48l.09 1.08-1.27.18v3.97c0 1.52.72 2.49 2.68 2.49 1.27 0 2.2-.33 2.98-1v-5.45l-1.25-.18.09-1.08H38l.09 1.08-1.25.18v6.17l1.25.32-.09 1.08h-2.45zm13.57-1.46l1.25.39v1.08h-2.15l-.56-.9c-1 .9-2.27 1.25-3.83 1.25-3.14 0-5.08-1.94-5.08-4.76 0-2.79 2.08-4.76 5.59-4.76 1.08 0 1.94.19 2.64.53v-1.62l-1.23-.18-.11-1.08 3.33-.21.14.09v10.17zm-2.13-5.82c-.93-.32-1.71-.41-2.64-.41-2.1 0-3.42.97-3.42 3.28 0 2.34 1.32 3.28 3.07 3.28 1.32 0 2.42-.41 3-1v-5.15zm7.98-1.53l.09 1.08-1.04.14 2.87 5.89h.14l2.06-4.94-.42-.93-1.13-.16.09-1.08h4.48l.09 1.08-1.04.14 2.12 5.89h.14l2.68-5.89-1.15-.14.07-1.08h4.04l.07 1.08-1.13.15-3.84 7.54-1.9.21-2.24-4.88-2.15 4.67-1.99.21-4.34-7.76-1.13-.16.09-1.08h4.47zm18.23-.07l.14.12v7.51l1.25.18-.07 1.08h-4.51l-.09-1.08 1.27-.18v-6.29l-1.09-.11-.09-1.06 3.19-.17zm.48-2.22c0 .7-.65 1.2-1.43 1.2-.76 0-1.41-.49-1.41-1.2s.65-1.2 1.41-1.2c.78 0 1.43.49 1.43 1.2zm12.92 3.54c-.35-.11-.67-.19-1.04-.19l-.04.18c.63.71 1.08 1.6 1.08 2.54 0 2.13-1.71 4.11-5.24 4.11-1.39 0-2.47-.28-3.26-.78-.42.32-.6.78-.6 1.16 0 .42.12.92.6 1.27 1.3-.63 2.43-.92 4.04-.92 2.49 0 3.86.63 5.38 1.97l-.74.9c-1.41-.78-3-1.11-4.64-1.11-1.66 0-3.3.3-4.78.81-1.25-.88-1.92-2.1-2.01-3.23.41-.53 1.04-1.06 1.83-1.59-.7-.7-1.06-1.64-1.06-2.61 0-2.13 1.67-4.11 5.23-4.11 1.23 0 2.27.23 3.08.69.12-.23.28-.42.48-.6.32-.07.67-.09 1.08-.09.78 0 1.53.16 2.19.35v.99l-1.58.26zm-2.15 2.52c0-1.74-1.15-2.64-3.08-2.64-1.97 0-3.08.9-3.08 2.64 0 1.78 1.11 2.64 3.08 2.64 1.94 0 3.08-.86 3.08-2.64zm14.11-5.71l3.77 7.3h.16l3.7-7.3h4.9l.09 1.08-1.73.37v7.86l1.73.37-.09 1.08h-5.52l-.09-1.08 1.85-.37v-7.65h-.23l-4.48 8.92-.99.16-4.69-9.11h-.25l.19 3.95v3.75l1.57.35-.09 1.08h-4.74l-.09-1.08 1.64-.35v-7.9l-1.64-.35.09-1.08h4.94zm16.76 1.87l.14.12v7.51l1.25.18-.07 1.08h-4.51l-.09-1.08 1.27-.18v-6.29l-1.09-.11-.09-1.06 3.19-.17zm.48-2.22c0 .7-.65 1.2-1.43 1.2-.76 0-1.41-.49-1.41-1.2s.65-1.2 1.41-1.2c.78 0 1.43.49 1.43 1.2zm10.89 6.38h-1.29l-.34-2.54c-.76-.34-1.48-.49-2.4-.49-2.19 0-3.44 1.37-3.44 3.35 0 1.96 1.07 3.35 3.26 3.35 1.66 0 2.49-.3 3.61-1.09l.76 1.27c-1.27.9-2.71 1.23-4.37 1.23-3.4 0-5.41-2.13-5.41-4.76 0-2.64 2.1-4.76 5.59-4.76 1.78 0 3.21.35 4.27.9l-.24 3.54zm4.6-7l.16.11v3.4c.9-.62 2.06-.95 3.33-.95 3 0 4.46 1.69 4.46 4.07v3.84l1.25.18-.09 1.08h-4.48l-.09-1.08 1.27-.18V65.2c0-1.52-.72-2.43-2.68-2.43-1.27 0-2.2.34-2.98 1v5.45l1.25.18-.09 1.08h-4.48l-.09-1.08 1.25-.18v-9.03l-1.22-.16-.11-1.08 3.34-.2zm10.92 3.51c1.32-.67 2.72-.95 4.34-.95 3.07 0 4.41 1.3 4.41 3.19v4.18c0 .37.18.63.55.63h.79l.09 1.16c-.49.16-.88.23-1.34.23-1.02 0-1.53-.42-1.71-1.15-.95.83-2.34 1.27-3.95 1.27-2.04 0-4.12-.63-4.12-2.96 0-1.71 1.52-2.63 3.75-2.94 1.25-.18 2.4-.21 3.79-.21v-.6c0-.78-.72-1.34-2.57-1.34-1.06 0-2.22.23-3.53.81l-.5-1.32zm6.59 3.7c-1.36 0-2.54.07-3.54.23-1.27.19-1.8.69-1.8 1.66 0 .85.65 1.5 2.15 1.5 1.25 0 2.31-.26 3.19-.76v-2.63zm10.03.92l-3.65-.19c.19 1.78 1.29 2.73 3.19 2.73 1.66 0 2.49-.25 3.61-1.04l.76 1.27c-1.27.9-2.54 1.18-4.37 1.18-3.44 0-5.38-2.13-5.38-4.76 0-2.64 2.01-4.76 5.5-4.76 3.17 0 5.06 1.78 5.06 4.67 0 .25-.02.53-.09.79l-.11.11h-4.52zm2.58-1.47c-.09-1.92-1.22-2.7-2.91-2.7-1.94 0-3.07.93-3.31 2.7h6.22zm6.13-6.66l.16.11v10.36l1.25.18-.09 1.08h-4.48l-.09-1.08 1.25-.18v-9.03l-1.22-.16-.11-1.08 3.33-.2zM4.91 77.57L5 78.64l-1.04.14 2.87 5.89h.14l2.68-5.89-1.15-.14.07-1.08h4.04l.07 1.08-1.13.16-3.88 7.54-1.87.21-4.32-7.75-1.13-.16.09-1.08h4.47zm19.08 4.41c0 2.64-2.1 4.76-5.59 4.76-3.49 0-5.59-2.12-5.59-4.76 0-2.63 2.1-4.76 5.59-4.76 3.49 0 5.59 2.13 5.59 4.76zm-9.03 0c0 2.04 1.15 3.35 3.44 3.35 2.27 0 3.42-1.3 3.42-3.35 0-2.03-1.15-3.35-3.42-3.35-2.29 0-3.44 1.32-3.44 3.35zm12.26-4.5l.46 1.06c.93-.86 2.29-1.32 3.79-1.32 3 0 4.46 1.69 4.46 4.07v3.84l1.25.18-.09 1.08h-4.48l-.09-1.08 1.27-.18v-4.02c0-1.52-.72-2.43-2.68-2.43-1.27 0-2.2.34-2.98 1v5.45l1.25.18-.09 1.08h-4.48l-.09-1.08 1.25-.18v-6.26l-1.16-.07-.09-1.07 2.5-.25zm25.14 2.01l-.49-1.8c-.92-.62-2.08-1.01-3.65-1.01-2.04 0-3.01.49-3.01 1.53 0 .67.49 1.09 1.32 1.22l3.9.56c2.27.32 3.84 1.18 3.84 3.08 0 2.94-2.96 3.74-5.98 3.74-1.92 0-3.74-.34-5.61-1.41l.19-3.07 1.13.03.39 1.69c1.04.74 2.24 1.25 4.05 1.25 1.99 0 3.49-.3 3.49-1.74 0-.86-.6-1.38-1.64-1.52l-4.05-.58c-1.87-.26-3.31-1.11-3.31-2.87 0-2.49 2.29-3.4 5.46-3.4 2.22 0 3.98.51 5.22 1.13l-.18 3.12-1.07.05zm12.53 2.17H63.6l-.34-2.54c-.76-.34-1.48-.49-2.4-.49-2.19 0-3.44 1.37-3.44 3.35 0 1.96 1.07 3.35 3.26 3.35 1.66 0 2.49-.3 3.61-1.09l.76 1.27c-1.27.9-2.71 1.23-4.37 1.23-3.4 0-5.41-2.13-5.41-4.76 0-2.64 2.1-4.76 5.59-4.76 1.78 0 3.21.35 4.27.9l-.24 3.54zm4.6-7l.16.11v3.4c.9-.62 2.06-.95 3.33-.95 3 0 4.46 1.69 4.46 4.07v3.84l1.25.18-.09 1.08h-4.48l-.09-1.08 1.27-.18v-4.02c0-1.52-.72-2.43-2.68-2.43-1.27 0-2.2.34-2.98 1v5.45l1.25.18-.09 1.08h-4.48l-.09-1.08 1.25-.18V76.1l-1.22-.16-.11-1.08 3.34-.2zm13.19 2.91l.09 1.08-1.04.14 2.87 5.89h.14l2.06-4.94-.42-.93-1.13-.16.09-1.08h4.48l.09 1.08-1.04.14 2.12 5.89h.14l2.68-5.89-1.15-.14.07-1.08h4.04l.07 1.08-1.13.16-3.84 7.54-1.9.21-2.24-4.88-2.15 4.67-1.99.21-4.34-7.76-1.13-.16.09-1.08h4.47zm15.57.6c1.32-.67 2.72-.95 4.34-.95 3.07 0 4.41 1.3 4.41 3.19v4.18c0 .37.18.63.55.63h.79l.09 1.16c-.49.16-.88.23-1.34.23-1.02 0-1.53-.42-1.71-1.15-.95.83-2.34 1.27-3.95 1.27-2.04 0-4.12-.63-4.12-2.96 0-1.71 1.52-2.63 3.75-2.94 1.25-.18 2.4-.21 3.79-.21v-.6c0-.78-.72-1.34-2.57-1.34-1.06 0-2.22.23-3.53.81l-.5-1.32zm6.59 3.7c-1.36 0-2.54.07-3.54.23-1.27.19-1.8.69-1.8 1.66 0 .85.65 1.5 2.15 1.5 1.25 0 2.31-.26 3.19-.76v-2.63zm6.82-4.39l.46 1.06c.93-.86 2.29-1.32 3.79-1.32 3 0 4.46 1.69 4.46 4.07v3.84l1.25.18-.09 1.08h-4.48l-.09-1.08 1.27-.18v-4.02c0-1.52-.72-2.43-2.68-2.43-1.27 0-2.2.34-2.98 1v5.45l1.25.18-.09 1.08h-4.48l-.09-1.08 1.25-.18v-6.26l-1.16-.07-.09-1.07 2.5-.25zm11.25.09v-1.74l1.83-1.15.28.09v2.8h3.72l.12.11-.18 1.43-3.65-.11v3.93c0 1.83.7 2.33 2.17 2.33.65 0 1.3-.14 1.83-.41l.55 1.06c-.69.56-1.71.83-2.91.83-2.56 0-3.75-1.32-3.75-3.83v-3.98l-1.39-.09-.12-.11.33-1.16h1.17zm10.44-2.91l.16.11v3.4c.9-.62 2.06-.95 3.33-.95 3 0 4.46 1.69 4.46 4.07v3.84l1.25.18-.09 1.08h-4.48l-.09-1.08 1.27-.18v-4.02c0-1.52-.72-2.43-2.68-2.43-1.27 0-2.2.34-2.98 1v5.45l1.25.18-.09 1.08h-4.48l-.09-1.08 1.25-.18V76.1l-1.22-.16-.11-1.08 3.34-.2zm10.91 3.51c1.32-.67 2.72-.95 4.34-.95 3.07 0 4.41 1.3 4.41 3.19v4.18c0 .37.18.63.55.63h.79l.09 1.16c-.49.16-.88.23-1.34.23-1.02 0-1.53-.42-1.71-1.15-.95.83-2.34 1.27-3.95 1.27-2.04 0-4.12-.63-4.12-2.96 0-1.71 1.52-2.63 3.75-2.94 1.25-.18 2.4-.21 3.79-.21v-.6c0-.78-.72-1.34-2.57-1.34-1.06 0-2.22.23-3.53.81l-.5-1.32zm6.59 3.7c-1.36 0-2.54.07-3.54.23-1.27.19-1.8.69-1.8 1.66 0 .85.65 1.5 2.15 1.5 1.25 0 2.31-.26 3.19-.76v-2.63zm7.59-7.21l.16.11v10.36l1.25.18-.09 1.08h-4.48l-.09-1.08 1.25-.18V76.1l-1.22-.16-.11-1.08 3.33-.2zm7.89 8.13l-3.65-.19c.19 1.78 1.29 2.73 3.19 2.73 1.66 0 2.49-.25 3.61-1.04l.76 1.27c-1.27.9-2.54 1.18-4.37 1.18-3.44 0-5.38-2.13-5.38-4.76 0-2.64 2.01-4.76 5.5-4.76 3.17 0 5.06 1.78 5.06 4.67 0 .25-.02.53-.09.79l-.11.11h-4.52zm2.58-1.47c-.09-1.92-1.22-2.7-2.91-2.7-1.94 0-3.07.93-3.31 2.7h6.22zm5.06-3.84l.6 1.06c.93-.86 1.94-1.32 3.44-1.32 1.45 0 2.45.34 3.28 1.01l-.29 3.43h-1.29l-.3-2.31c-.37-.42-1.09-.67-1.82-.67-1.2 0-1.85.32-2.57 1v5.45l1.25.18-.09 1.08h-4.48l-.09-1.08 1.25-.18v-6.26l-1.16-.07-.09-1.07 2.36-.25z"/></svg>